<svg width="32" height="32" viewBox="0 0 32 32" fill="none" xmlns="http://www.w3.org/2000/svg">
<path d="M0 16C0 7.16344 7.16344 0 16 0C24.8366 0 32 7.16344 32 16C32 24.8366 24.8366 32 16 32C7.16344 32 0 24.8366 0 16Z" fill="#F1F1F1"/>
<path d="M22.4 11.2H19.2V9.6C19.2 8.72 18.48 8 17.6 8H14.4C13.52 8 12.8 8.72 12.8 9.6V11.2H9.6C8.72 11.2 8 11.92 8 12.8V22.4C8 23.28 8.72 24 9.6 24H22.4C23.28 24 24 23.28 24 22.4V12.8C24 11.92 23.28 11.2 22.4 11.2ZM14.4 9.6H17.6V11.2H14.4V9.6ZM18.4 18.4H16.8V20C16.8 20.44 16.44 20.8 16 20.8C15.56 20.8 15.2 20.44 15.2 20V18.4H13.6C13.16 18.4 12.8 18.04 12.8 17.6C12.8 17.16 13.16 16.8 13.6 16.8H15.2V15.2C15.2 14.76 15.56 14.4 16 14.4C16.44 14.4 16.8 14.76 16.8 15.2V16.8H18.4C18.84 16.8 19.2 17.16 19.2 17.6C19.2 18.04 18.84 18.4 18.4 18.4Z" fill="#070723" fill-opacity="0.5"/>
</svg>
