<svg width="32" height="32" viewBox="0 0 32 32" fill="none" xmlns="http://www.w3.org/2000/svg">
<path d="M0 16C0 7.16344 7.16344 0 16 0C24.8366 0 32 7.16344 32 16C32 24.8366 24.8366 32 16 32C7.16344 32 0 24.8366 0 16Z" fill="#F1F1F1"/>
<path d="M10.8951 13.0189L11.3331 12.5726C11.8215 12.0842 12.6301 12.0842 13.1354 12.6063L13.1522 12.6316C13.5649 13.0526 14.1124 13.2547 14.7103 13.3137C15.5273 13.3895 16.319 13.8274 16.8411 14.6189C17.4138 15.5284 17.4054 16.7411 16.8074 17.6421C16.5819 17.9987 16.2786 18.2997 15.9203 18.5225C15.5619 18.7453 15.1578 18.8842 14.7382 18.9288C14.3185 18.9733 13.8942 18.9224 13.4971 18.7798C13.0999 18.6372 12.7402 18.4066 12.4448 18.1053C11.9731 17.6421 11.7036 17.0442 11.6363 16.4211C11.5689 15.8063 11.3246 15.2253 10.8951 14.7958C10.4066 14.3158 10.4066 13.5074 10.8951 13.0189ZM14.4324 19.7895C13.447 19.7895 12.529 19.4105 11.8468 18.7116C11.2573 18.1053 10.8867 17.3474 10.794 16.5221C10.7688 16.2695 10.693 15.9411 10.4908 15.6379C9.98552 16.3368 9.68232 17.1789 9.68232 18.1053C9.68232 19.4863 10.3561 20.7074 11.392 21.4737H22.3155V20.6316C22.3155 17.6 20.3026 15.0316 17.5486 14.1895C18.2982 15.3684 18.2813 16.9432 17.5149 18.1053C16.8411 19.1579 15.6789 19.7895 14.4324 19.7895ZM18.7614 12.6821H19.831C20.5637 12.6821 21.2038 13.1958 21.2038 14.1137V14.7368H22.2566V13.8947C22.2566 12.6316 21.1364 11.6716 19.831 11.6716H18.7614C18.0623 11.6716 17.4644 10.9811 17.4644 10.2737C17.4644 9.56632 18.0623 9.04421 18.7614 9.04421V8C17.4644 8 16.42 9.04421 16.42 10.3411C16.42 11.6379 17.4644 12.6821 18.7614 12.6821ZM10.1034 12.6737C10.154 12.5895 10.2213 12.5053 10.2971 12.4211L10.7351 11.9832C10.8109 11.9074 10.8951 11.8484 10.9793 11.7895L9.79181 10.5853C9.90972 10.3579 9.86761 10.0632 9.68232 9.86947C9.56171 9.75209 9.40005 9.6864 9.23174 9.6864C9.06342 9.6864 8.90176 9.75209 8.78115 9.86947C8.66324 9.98737 8.60429 10.1305 8.59587 10.2821C8.44427 10.2905 8.30109 10.3495 8.18318 10.4674C7.93894 10.7116 7.93894 11.1158 8.18318 11.3684C8.37689 11.5537 8.66324 11.5958 8.89906 11.4779L10.1034 12.6737ZM21.8018 10.0126C22.2313 9.58316 22.5008 9.00211 22.5008 8.35368H21.448C21.448 9.05263 20.8585 9.64211 20.1594 9.64211V10.6863C21.726 10.6863 22.9556 11.9663 22.9556 13.5326V15.5789H23.9999V13.5326C24.0041 12.7981 23.7998 12.0774 23.4107 11.4543C23.0216 10.8312 22.4637 10.3313 21.8018 10.0126ZM10.5245 24H22.3155C23.2504 24 23.9999 23.2505 23.9999 22.3158H8.84011C8.84011 22.7625 9.01757 23.1909 9.33346 23.5067C9.64935 23.8226 10.0778 24 10.5245 24Z" fill="#070723" fill-opacity="0.5"/>
</svg>
