<svg width="32" height="32" viewBox="0 0 32 32" fill="none" xmlns="http://www.w3.org/2000/svg">
<path d="M0 16C0 7.16344 7.16344 0 16 0C24.8366 0 32 7.16344 32 16C32 24.8366 24.8366 32 16 32C7.16344 32 0 24.8366 0 16Z" fill="#F1F1F1"/>
<path d="M12 11.5C12 9.56687 13.7893 8 16 8C18.2107 8 20 9.56687 20 11.5V13H22.2857C23.2321 13 24 13.6719 24 14.5V21C24 22.6562 22.4643 24 20.5714 24H11.4286C9.535 24 8 22.6562 8 21V14.5C8 13.6719 8.7675 13 9.71429 13H12V11.5ZM13.7143 13H18.2857V11.5C18.2857 10.3953 17.2607 9.5 16 9.5C14.7393 9.5 13.7143 10.3953 13.7143 11.5V13ZM12.8571 16C13.3321 16 13.7143 15.6656 13.7143 15.25C13.7143 14.8344 13.3321 14.5 12.8571 14.5C12.3821 14.5 12 14.8344 12 15.25C12 15.6656 12.3821 16 12.8571 16ZM19.1429 14.5C18.6679 14.5 18.2857 14.8344 18.2857 15.25C18.2857 15.6656 18.6679 16 19.1429 16C19.6179 16 20 15.6656 20 15.25C20 14.8344 19.6179 14.5 19.1429 14.5Z" fill="#070723" fill-opacity="0.5"/>
</svg>
