<svg width="138" height="246" viewBox="0 0 138 246" fill="none" xmlns="http://www.w3.org/2000/svg">
<path opacity="0.33" d="M85.4069 246C107.441 246 125.303 243.994 125.303 241.52C125.303 239.046 107.441 237.04 85.4069 237.04C63.3727 237.04 45.5104 239.046 45.5104 241.52C45.5104 243.994 63.3727 246 85.4069 246Z" fill="#197BEB"/>
<path d="M70.5195 135.516L70.2537 135.182C70.314 135.313 70.4052 135.428 70.5195 135.516Z" fill="#263238"/>
<path d="M61.8254 236.952C61.8254 236.952 49.5965 238.527 49.8328 239.709C50.0692 240.89 63.0956 244.681 64.0408 244.681C64.986 244.681 66.1183 238.143 66.1183 238.143L61.8254 236.952Z" fill="white"/>
<g style="mix-blend-mode:multiply">
<path d="M64.8284 243.479L51.3097 238.861C50.3251 239.147 49.7836 239.442 49.8328 239.708C50.0691 240.89 63.0955 244.68 64.0408 244.68C64.3066 244.68 64.5724 244.208 64.8284 243.479Z" fill="#197BEB"/>
</g>
<path d="M61.8254 236.952C61.8254 236.952 49.5965 238.527 49.8328 239.709C50.0692 240.89 63.0956 244.681 64.0408 244.681C64.986 244.681 66.1183 238.143 66.1183 238.143L61.8254 236.952Z" stroke="#263238" stroke-width="0.826956" stroke-miterlimit="10"/>
<path d="M110.219 234.362C109.627 235.291 108.915 236.138 108.102 236.883C107.118 237.591 103.603 239.009 103.603 239.964C103.603 240.919 110.702 241.382 112.129 241.146C113.557 240.91 115.201 238.064 116.629 237.119C118.057 236.174 114.079 232.196 114.079 232.196C112.833 232.989 111.545 233.712 110.219 234.362Z" fill="white"/>
<g style="mix-blend-mode:multiply">
<path d="M116.629 237.099C117.111 236.774 116.954 236.114 116.55 235.317C115.019 236.794 113.343 238.113 111.548 239.255C109.835 240.043 104.321 239.127 104.321 239.127H104.213C103.839 239.413 103.603 239.698 103.603 239.945C103.603 240.929 110.702 241.362 112.129 241.126C113.557 240.89 115.201 238.044 116.629 237.099Z" fill="#197BEB"/>
</g>
<path d="M110.219 234.362C109.627 235.291 108.915 236.138 108.102 236.883C107.118 237.591 103.603 239.009 103.603 239.964C103.603 240.919 110.702 241.382 112.129 241.146C113.557 240.91 115.201 238.064 116.629 237.119C118.057 236.174 114.079 232.196 114.079 232.196C112.833 232.989 111.545 233.712 110.219 234.362V234.362Z" stroke="#263238" stroke-width="0.826956" stroke-linecap="round" stroke-linejoin="round"/>
<path d="M84.6487 148.277C84.6487 148.277 87.7207 186.116 88.9121 189.07C90.1034 192.024 110.219 234.362 110.219 234.362L114.079 232.196L99.6542 180.011L102.391 121.644L84.6487 148.277Z" fill="#197BEB" stroke="#263238" stroke-width="0.826956" stroke-linecap="round" stroke-linejoin="round"/>
<path opacity="0.2" d="M84.6487 148.277C84.6487 148.277 87.7207 186.116 88.9121 189.07C90.1034 192.024 110.219 234.362 110.219 234.362L114.079 232.196L99.6542 180.011L102.391 121.644L84.6487 148.277Z" fill="black"/>
<path d="M78.5245 113.471C78.5245 113.471 72.8039 144.25 71.6322 153.319C70.4605 162.387 61.855 236.952 61.855 236.952L66.1479 238.143L88.794 154.746C88.794 154.746 96.6709 137.092 99.7724 131.844C102.874 126.596 105.729 118.719 104.745 114.899C103.76 111.079 78.5245 113.471 78.5245 113.471Z" fill="#197BEB" stroke="#263238" stroke-width="0.826956" stroke-linecap="round" stroke-linejoin="round"/>
<path opacity="0.1" d="M78.5245 113.471C78.5245 113.471 72.8039 144.25 71.6322 153.319C70.4605 162.387 61.855 236.952 61.855 236.952L66.1479 238.143L88.794 154.746C88.794 154.746 96.6709 137.092 99.7724 131.844C102.874 126.596 105.729 118.719 104.745 114.899C103.76 111.079 78.5245 113.471 78.5245 113.471Z" fill="black"/>
<path d="M90.3594 119.871C87.1364 126.968 84.5785 134.348 82.7188 141.917C80.1293 153.269 76.1908 168.393 76.1908 171.612C76.1908 174.832 76.4075 179.253 75.3145 181.006C74.2216 182.758 72.2524 183.192 72.0358 187.337C71.8192 191.482 73.5619 197.38 70.9429 204.144C68.3238 210.908 66.7976 214.187 66.7976 218.775C66.7976 223.364 64.3755 236.686 64.3755 236.686" stroke="#263238" stroke-width="0.620217" stroke-linecap="round" stroke-linejoin="round"/>
<path d="M89.9755 155.671V172.489C89.9755 183.408 94.997 180.365 94.5539 181.655C94.1108 182.945 91.5016 186.027 92.3779 187.12C93.2542 188.213 94.5539 187.553 94.5539 189.089C94.5539 190.625 105.424 216.639 105.424 216.639" stroke="#263238" stroke-width="0.620217" stroke-linecap="round" stroke-linejoin="round"/>
<path d="M106.517 218.992L108.26 223.797" stroke="#263238" stroke-width="0.620217" stroke-linecap="round" stroke-linejoin="round"/>
<path d="M39.1498 54.1777C38.9051 55.2189 38.8221 56.2916 38.9036 57.358C39.1498 58.3426 43.3049 59.7999 43.3049 59.7999L39.1498 54.1777Z" fill="white" stroke="#263238" stroke-width="0.826956" stroke-linecap="round" stroke-linejoin="round"/>
<path d="M50.5909 54.0596C50.5909 54.0596 54.4112 60.2626 54.4112 60.9519C54.4112 61.6411 71.829 76.9321 71.829 76.9321C71.829 76.9321 75.8856 79.3247 76.5945 80.7524C77.3034 82.1801 77.077 91.0121 76.1219 91.2484C75.1668 91.4847 52.9933 64.3192 51.802 63.8466C50.6106 63.374 46.554 61.9365 46.554 61.9365L42.714 57.1316L50.5909 54.0596Z" fill="white" stroke="#263238" stroke-width="0.826956" stroke-linecap="round" stroke-linejoin="round"/>
<path d="M76.6142 80.7625C75.7561 79.6367 74.6857 78.6901 73.4635 77.9761C73.0517 79.5415 72.4255 81.0425 71.6025 82.4364C71.1077 83.2172 70.5155 83.9319 69.8401 84.5631C73.2272 88.5016 75.8265 91.3373 76.1416 91.2585C77.0967 91.0419 77.333 82.2198 76.6142 80.7625Z" fill="white"/>
<g style="mix-blend-mode:multiply" opacity="0.5">
<path d="M76.6142 80.7625C75.7561 79.6367 74.6857 78.6901 73.4635 77.9761C73.0517 79.5415 72.4255 81.0425 71.6025 82.4364C71.1077 83.2172 70.5155 83.9319 69.8401 84.5631C73.2272 88.5016 75.8265 91.3373 76.1416 91.2585C77.0967 91.0419 77.333 82.2198 76.6142 80.7625Z" fill="#197BEB"/>
</g>
<path d="M76.6142 80.7625C75.7561 79.6367 74.6857 78.6901 73.4635 77.9761C73.0517 79.5415 72.4255 81.0425 71.6025 82.4364C71.1077 83.2172 70.5155 83.9319 69.8401 84.5631C73.2272 88.5016 75.8265 91.3373 76.1416 91.2585C77.0967 91.0419 77.333 82.2198 76.6142 80.7625Z" stroke="#263238" stroke-width="0.826956" stroke-linecap="round" stroke-linejoin="round"/>
<path d="M39.2482 48.2015L37.279 49.0482C37.0187 49.1608 36.7877 49.3317 36.6038 49.5477C36.42 49.7637 36.2883 50.019 36.2188 50.294C36.1494 50.569 36.144 50.8563 36.2032 51.1336C36.2624 51.411 36.3846 51.6711 36.5602 51.8938L45.1559 62.8624C45.3028 63.0497 45.4864 63.205 45.6956 63.3186C45.9048 63.4322 46.135 63.5018 46.3721 63.523C46.6092 63.5442 46.8482 63.5166 47.0742 63.442C47.3002 63.3673 47.5086 63.2471 47.6864 63.0888L49.1436 61.8088C49.4719 61.5166 49.6791 61.1122 49.7247 60.675C49.7702 60.2378 49.6508 59.7994 49.3897 59.4458L41.4439 48.7922C41.1969 48.4622 40.8463 48.2245 40.4482 48.1174C40.05 48.0103 39.6275 48.0399 39.2482 48.2015Z" fill="#263238"/>
<path d="M48.4642 52.1495C48.4642 52.1495 44.6833 56.2061 44.8802 57.1316C45.0772 58.0572 46.3178 58.8055 47.0267 58.1163C47.7356 57.427 50.3744 55.251 50.6107 54.0597C50.6851 53.7721 50.6787 53.4696 50.5923 53.1855C50.5058 52.9013 50.3427 52.6465 50.1208 52.449C49.899 52.2516 49.6269 52.1191 49.3347 52.0663C49.0424 52.0134 48.7412 52.0422 48.4642 52.1495Z" fill="white" stroke="#263238" stroke-width="0.826956" stroke-linecap="round" stroke-linejoin="round"/>
<path d="M77.5693 108.223L77.8155 114.426C77.8155 114.426 81.6259 117.528 90.4579 118C96.0035 118.204 101.508 116.973 106.438 114.426L104.745 104.885L77.5693 108.223Z" fill="white"/>
<g style="mix-blend-mode:multiply" opacity="0.5">
<path d="M77.5693 108.223L77.717 112.034C79.9718 112.861 82.0099 113.402 82.0099 113.402L81.8032 116.405C83.2125 116.889 84.6578 117.261 86.1256 117.518L88.3607 115.076C95.1348 115.962 103.977 112.693 106.005 111.906L104.745 104.885L104.272 104.944L77.5693 108.223Z" fill="#197BEB"/>
</g>
<path d="M77.5693 108.223L77.8155 114.426C77.8155 114.426 81.6259 117.528 90.4579 118C96.0035 118.204 101.508 116.973 106.438 114.426L104.745 104.885L77.5693 108.223Z" stroke="#263238" stroke-width="0.826956" stroke-linecap="round" stroke-linejoin="round"/>
<path d="M76.378 48.3294C76.378 48.3294 73.7589 63.0986 72.0851 67.421C71.4733 69.1583 71.2837 71.0163 71.532 72.8413C71.7802 74.6664 72.4592 76.4062 73.5127 77.917C74.9503 80.0634 75.6592 96.5261 75.6592 99.3914C75.6592 102.257 73.7589 106.077 76.378 109.178C78.997 112.28 92.1318 112.999 99.5262 112.044C106.921 111.089 109.067 106.55 109.067 104.403C109.067 102.257 102.175 74.5791 98.5711 62.6456C94.9674 50.7121 89.9755 42.1263 87.829 40.6986C85.6826 39.2709 87.3564 38.5522 85.2099 39.2709C83.0635 39.9897 78.2881 44.9915 76.378 48.3294Z" fill="white"/>
<g style="mix-blend-mode:multiply" opacity="0.5">
<path d="M80.2279 109.71C78.7608 109.976 77.8451 109.405 76.4863 109.503C78.6525 110.872 82.8666 111.965 87.2088 112.634C89.178 109.68 93.4315 102.788 93.9435 98.6624C94.613 93.316 96.9564 81.924 95.2826 77.9166C93.6087 73.9093 88.5971 51.8244 87.258 51.8244C85.9189 51.8244 84.2451 46.4681 81.2322 54.1579C81.2322 54.1579 79.2629 57.5056 80.5626 65.2053C81.8623 72.9049 84.2451 76.2428 82.906 81.9437C81.5669 87.6446 82.906 91.9867 85.2494 92.3215C87.5928 92.6563 88.2623 93.3061 87.5928 97.3332C86.9232 101.36 83.9103 109.04 80.2279 109.71Z" fill="#197BEB"/>
</g>
<g style="mix-blend-mode:multiply" opacity="0.5">
<path d="M73.6407 75.2585C72.6651 74.5141 71.9124 73.5162 71.4647 72.3735C71.7057 74.3558 72.407 76.2542 73.5127 77.9169C74.9503 80.0634 75.6592 96.5261 75.6592 99.3913C75.6641 99.4799 75.6641 99.5686 75.6592 99.6572C76.1166 96.8891 76.2816 94.0806 76.1515 91.2781C75.6395 87.2313 81.0155 81.944 81.0155 79.6104C81.0155 77.2769 76.9884 77.6018 73.6407 75.2585Z" fill="#197BEB"/>
</g>
<path d="M76.378 48.3294C76.378 48.3294 73.7589 63.0986 72.0851 67.421C71.4733 69.1583 71.2837 71.0163 71.532 72.8413C71.7802 74.6664 72.4592 76.4062 73.5127 77.917C74.9503 80.0634 75.6592 96.5262 75.6592 99.3914C75.6592 102.257 73.7589 106.077 76.378 109.178C78.997 112.28 92.1318 112.999 99.5262 112.044C106.921 111.089 109.067 106.55 109.067 104.403C109.067 102.257 102.175 74.5791 98.5711 62.6456C94.9674 50.7121 89.9755 42.1263 87.829 40.6986C85.6826 39.2709 87.3564 38.5522 85.2099 39.2709C83.0635 39.9897 78.2881 44.9915 76.378 48.3294Z" stroke="#263238" stroke-width="0.826956" stroke-linecap="round" stroke-linejoin="round"/>
<path d="M75.9447 53.7053C75.9447 53.7053 77.6973 54.5816 80.0998 51.5293" stroke="#263238" stroke-width="0.620217" stroke-linecap="round" stroke-linejoin="round"/>
<path d="M103.583 85.3213L93.3231 89.1317C93.3231 89.1317 90.9305 97.7274 89.5028 101.784C88.0751 105.841 80.6413 123.731 80.6413 123.731C80.6413 123.731 76.3484 128.506 75.3933 129.934C74.4383 131.362 74.202 136.137 74.9207 136.826C75.6395 137.516 77.3035 135.153 77.3035 135.153C77.3035 135.153 77.7859 136.344 79.6863 135.389C81.5866 134.434 84.0678 125.405 84.0678 125.405C84.0678 125.405 94.0813 108.223 97.6653 102.759C101.249 97.2942 104.105 92.0166 104.105 89.8702C104.059 88.3419 103.884 86.8203 103.583 85.3213Z" fill="white"/>
<g style="mix-blend-mode:multiply" opacity="0.5">
<path d="M103.888 87.3197C103.819 86.7782 103.75 86.3351 103.691 85.9609L101.535 86.0791L93.3231 89.1314C93.3231 89.1314 90.9305 97.7271 89.5028 101.784C88.0751 105.84 80.6413 123.731 80.6413 123.731C80.6413 123.731 76.3484 128.506 75.3933 129.934C74.4383 131.361 74.202 136.137 74.9207 136.826C75.6395 137.515 77.3035 135.152 77.3035 135.152C76.5699 134.141 76.0873 132.97 75.8955 131.736C75.8955 130.308 81.3109 125.178 81.3109 125.178L98.1674 91.5929L103.888 87.3197Z" fill="#197BEB"/>
</g>
<path d="M103.583 85.3213L93.3231 89.1317C93.3231 89.1317 90.9305 97.7274 89.5028 101.784C88.0751 105.841 80.6413 123.731 80.6413 123.731C80.6413 123.731 76.3484 128.506 75.3933 129.934C74.4383 131.362 74.202 136.137 74.9207 136.826C75.6395 137.516 77.3035 135.153 77.3035 135.153C77.3035 135.153 77.7859 136.344 79.6862 135.389C81.5866 134.434 84.0678 125.405 84.0678 125.405C84.0678 125.405 94.0813 108.223 97.6653 102.759C101.249 97.2942 104.105 92.0166 104.105 89.8702C104.059 88.3419 103.884 86.8203 103.583 85.3213V85.3213Z" stroke="#263238" stroke-width="0.826956" stroke-linecap="round" stroke-linejoin="round"/>
<path d="M93.3231 89.1317C93.3231 89.1317 92.624 91.6425 91.7576 94.5766C93.5779 95.2042 95.4643 95.6205 97.3797 95.8172C98.8226 95.9611 100.275 95.9874 101.722 95.896C103.15 93.2474 104.055 91.0616 104.055 89.8505C104.025 88.3302 103.866 86.8152 103.583 85.3213L93.3231 89.1317Z" fill="white" stroke="#263238" stroke-width="0.826956" stroke-linecap="round" stroke-linejoin="round"/>
<path d="M86.165 48.5753C84.177 50.2736 82.8982 52.6557 82.581 55.251C82.1084 59.5439 85.9188 70.0202 85.9188 74.8153C85.9188 79.6103 86.9034 85.5574 87.829 87.9401C88.7545 90.3229 93.077 91.7604 97.616 90.5691C102.155 89.3777 105.966 88.6589 105.966 83.4109C105.966 78.1629 101.19 69.0946 97.8523 61.2177C94.5145 53.3408 91.6493 46.4289 86.165 48.5753Z" fill="white"/>
<g style="mix-blend-mode:multiply" opacity="0.5">
<path d="M86.165 48.5752C86.165 48.5752 84.2647 50.062 85.1804 55.2115C86.0961 60.361 87.317 67.2828 87.6715 70.6601C88.0259 74.0373 94.4161 63.561 93.7071 67.1056C92.9982 70.6502 89.9755 81.1363 89.9755 83.4502C89.9755 85.764 92.9982 88.7769 95.8831 89.3578C98.768 89.9388 104.124 88.3732 104.124 88.3732C102.758 89.1467 101.304 89.7517 99.792 90.1751C97.9547 90.6714 96.0763 91.001 94.1797 91.1597L92.9293 90.9037C92.9293 90.9037 88.4887 90.9037 87.0216 86.8175C85.5545 82.7314 86.6672 74.9234 84.885 69.0945C83.1029 63.2656 82.4038 59.6816 82.2265 57.0133C82.0493 54.345 84.3238 49.5697 86.165 48.5752Z" fill="#197BEB"/>
</g>
<path d="M86.165 48.5753C84.177 50.2736 82.8982 52.6557 82.581 55.251C82.1084 59.5439 85.9188 70.0202 85.9188 74.8153C85.9188 79.6103 86.9034 85.5574 87.829 87.9401C88.7545 90.3229 93.077 91.7604 97.616 90.5691C102.155 89.3777 105.966 88.6589 105.966 83.4109C105.966 78.1629 101.19 69.0946 97.8523 61.2177C94.5145 53.3408 91.6493 46.4289 86.165 48.5753Z" stroke="#263238" stroke-width="0.826956" stroke-linecap="round" stroke-linejoin="round"/>
<path d="M95.8142 58.9531C95.1507 63.6116 93.6744 68.1173 91.4524 72.2651" stroke="#263238" stroke-width="0.620217" stroke-linecap="round" stroke-linejoin="round"/>
<path d="M90.5761 73.1416L88.6167 75.5441" stroke="#263238" stroke-width="0.620217" stroke-linecap="round" stroke-linejoin="round"/>
<path d="M70.047 39.8809C72.2187 41.025 73.9933 42.7997 75.1374 44.9714C76.5946 48.2501 76.9589 50.8003 78.0912 50.0717C79.2235 49.3431 86.0961 40.7474 84.7964 40.0877C81.8426 38.6403 78.8297 31.5806 80.2771 26.4213C80.8285 24.2847 69.6826 35.5191 70.047 39.8809Z" fill="white" stroke="#263238" stroke-width="0.826956" stroke-linecap="round" stroke-linejoin="round"/>
<path d="M64.4247 10.6086C61.0574 12.3022 57.3848 15.1182 57.3848 19.2142C57.3848 26.3723 60.2894 29.1981 60.2894 30.9803C60.2894 32.7624 57.8968 35.1649 58.7928 36.0609C59.6888 36.9569 61.7466 36.6516 61.7466 36.6516C63.1693 39.2436 64.7647 41.7371 66.522 44.115C68.314 46.2024 71.6026 43.219 75.1866 40.531C78.7706 37.843 80.5527 35.4603 80.5527 30.3895C80.5527 25.3188 83.0635 21.528 80.8579 16.6049C80.1886 15.1186 79.2286 13.7812 78.0345 12.6716C76.8404 11.5619 75.4364 10.7024 73.905 10.1436C72.3737 9.58484 70.746 9.33813 69.1179 9.418C67.4897 9.49786 65.894 9.90269 64.4247 10.6086Z" fill="white"/>
<g style="mix-blend-mode:multiply" opacity="0.5">
<path d="M64.9073 9.64379C61.5399 11.3373 57.8673 14.1632 57.8673 18.2493C59.5707 17.6487 61.9338 17.0481 63.0562 17.7964C64.927 19.037 62.751 26.1951 68.9639 28.9914C75.1768 31.7877 76.4273 31.4825 77.3626 33.6585C77.9534 35.0369 76.9688 37.8037 75.1177 39.9994L75.679 39.576C79.2629 36.888 81.0549 34.5053 81.0549 29.4247C81.0549 24.3441 83.5657 20.6222 81.3602 15.6401C80.6909 14.1512 79.7302 12.8116 78.5346 11.7002C77.3391 10.5888 75.933 9.72829 74.3993 9.16935C72.8657 8.61041 71.2356 8.36441 69.6053 8.4459C67.975 8.52739 66.3776 8.93471 64.9073 9.64379Z" fill="#197BEB"/>
</g>
<path d="M64.4247 10.6086C61.0574 12.3022 57.3848 15.1182 57.3848 19.2142C57.3848 26.3723 60.2894 29.1981 60.2894 30.9803C60.2894 32.7624 57.8968 35.1649 58.7928 36.0609C59.6888 36.9569 61.7466 36.6516 61.7466 36.6516C63.1693 39.2436 64.7647 41.7371 66.522 44.115C68.314 46.2024 71.6026 43.219 75.1866 40.531C78.7706 37.843 80.5527 35.4603 80.5527 30.3895C80.5527 25.3188 83.0635 21.528 80.8579 16.6049C80.1886 15.1186 79.2286 13.7812 78.0345 12.6716C76.8404 11.5619 75.4364 10.7024 73.905 10.1436C72.3737 9.58484 70.746 9.33813 69.1179 9.418C67.4897 9.49786 65.894 9.90269 64.4247 10.6086Z" stroke="#263238" stroke-width="0.826956" stroke-linecap="round" stroke-linejoin="round"/>
<g style="mix-blend-mode:multiply" opacity="0.5">
<path d="M61.3331 32.0238L60.575 33.7174C60.575 33.7174 62.2685 35.4109 62.2685 34.0915C62.2685 32.7721 62.8297 30.8915 61.3331 32.0238Z" fill="#197BEB"/>
</g>
<path d="M65.9016 37.7739C66.5893 37.5081 67.1941 37.0645 67.6543 36.4885C68.1144 35.9124 68.4134 35.2245 68.5207 34.4951" fill="white"/>
<path d="M65.9016 37.7739C66.5893 37.5081 67.1941 37.0645 67.6543 36.4885C68.1144 35.9124 68.4134 35.2245 68.5207 34.4951" stroke="#263238" stroke-width="0.826956" stroke-linecap="round" stroke-linejoin="round"/>
<path d="M62.8494 28.1646L63.2826 30.1338C63.8427 30.3044 64.4429 30.2903 64.9943 30.0935C65.5458 29.8967 66.0193 29.5276 66.3447 29.0409" fill="white"/>
<path d="M62.8494 28.1646L63.2826 30.1338C63.8427 30.3044 64.4429 30.2903 64.9943 30.0935C65.5458 29.8967 66.0193 29.5276 66.3447 29.0409" stroke="#263238" stroke-width="0.826956" stroke-linecap="round" stroke-linejoin="round"/>
<path d="M61.0968 26.4213C61.4737 25.7487 62.0725 25.2278 62.7908 24.9477C63.5092 24.6675 64.3025 24.6455 65.0353 24.8853" fill="white"/>
<path d="M61.0968 26.4213C61.4737 25.7487 62.0725 25.2278 62.7908 24.9477C63.5092 24.6675 64.3025 24.6455 65.0353 24.8853" stroke="#263238" stroke-width="0.826956" stroke-linecap="round" stroke-linejoin="round"/>
<path d="M73.109 42.1362C72.2721 42.7664 71.4844 43.3473 70.7263 43.8101C73.1977 50.8993 65.1632 58.9829 68.5601 66.6334C69.3274 68.2914 70.275 69.8599 71.386 71.3103C71.386 71.028 71.386 70.7425 71.386 70.4537C71.3807 70.3684 71.3807 70.2829 71.386 70.1977C71.386 69.9811 71.386 69.7743 71.4647 69.5577C71.5435 69.3411 71.4647 69.3608 71.4647 69.2525C71.4647 69.1441 71.5534 68.8291 71.6124 68.6223C71.6715 68.4155 71.6124 68.4352 71.6814 68.3368C71.77 68.0315 71.8684 67.7263 71.9866 67.4211C73.6604 63.1282 76.2795 48.3294 76.2795 48.3294C76.2814 48.3032 76.2814 48.2769 76.2795 48.2507C75.9447 47.3645 75.5509 46.2224 74.9897 44.9719C74.5422 43.9192 73.9047 42.958 73.109 42.1362Z" fill="#263238"/>
<path d="M132.599 86.1876C124.486 79.2953 125.924 76.1642 128.07 70.9163C130.217 65.6683 129.744 54.4535 121.178 46.8129C112.612 39.1723 101.614 43.4751 96.5625 33.6979C91.5115 23.9207 96.3262 22.237 93.461 13.8875C90.5958 5.53798 80.1294 -0.428776 72.2525 0.0241462C70.2879 0.158267 68.3603 0.624346 66.5515 1.4026C53.7516 1.71767 49.4193 8.2949 52.0974 14.5964C52.6503 15.8014 53.6396 16.7519 54.8657 17.2562C56.0918 17.7605 57.4635 17.7811 58.7042 17.3139C60.8703 16.5263 63.7749 16.0438 65.1632 18.2986C67.5559 22.1188 66.6205 28.0462 73.7786 29.4739C77.3134 30.1828 79.4401 31.0099 80.5035 32.2013C80.5035 32.4868 80.4444 32.7822 80.3952 33.048C80.6099 33.8686 80.8864 34.6717 81.2223 35.4505C81.1032 36.0988 80.9253 36.7349 80.6906 37.3508C79.0266 41.88 75.4426 46.2123 80.9367 49.0382C86.4309 51.864 84.9343 48.2899 88.7447 48.2899C92.5552 48.2899 94.5736 53.2129 94.5736 53.2129C96.1485 56.2412 97.4914 59.3846 98.5908 62.616L98.7976 63.3052C102.027 70.6406 105.985 78.5962 105.985 83.3814C106.035 84.6097 105.731 85.8262 105.109 86.8867C105.936 90.1753 106.704 93.3063 107.334 95.9845C107.433 96.4079 107.531 96.8214 107.62 97.2251V97.2842C107.708 97.6977 107.807 98.1014 107.895 98.4854C107.974 98.8202 108.043 99.1352 108.112 99.47V99.6571C108.171 99.9229 108.22 100.169 108.27 100.405C108.319 100.642 108.319 100.602 108.339 100.691C108.339 100.927 108.437 101.144 108.476 101.36L108.535 101.616C108.535 101.813 108.614 101.991 108.644 102.168L108.703 102.424C108.703 102.581 108.762 102.729 108.782 102.867C108.803 102.948 108.819 103.03 108.831 103.113C108.831 103.241 108.831 103.349 108.89 103.458C108.949 103.566 108.89 103.605 108.89 103.664C108.89 103.724 108.89 103.842 108.89 103.92C108.884 103.976 108.884 104.032 108.89 104.088C108.89 104.206 108.89 104.295 108.89 104.364C108.903 104.534 108.903 104.705 108.89 104.876V105.023C108.869 105.169 108.839 105.314 108.801 105.456C108.801 105.516 108.801 105.565 108.801 105.624C108.801 105.683 108.683 105.988 108.604 106.175V106.244C108.398 106.741 108.137 107.213 107.827 107.652V107.721C107.661 107.956 107.48 108.179 107.285 108.391C106.81 108.915 106.274 109.381 105.69 109.779L106.487 114.338C106.487 114.338 105.897 114.672 104.853 115.135C106.702 116.011 108.675 116.598 110.702 116.878C123.108 118.788 129.074 115.44 133.604 109.001C138.133 102.562 140.713 93.1094 132.599 86.1876Z" fill="#263238"/>
<path d="M53.2888 14.9016C53.2888 14.9016 56.7153 17.5207 62.3571 15.3053C67.9989 13.0899 72.8432 12.6862 76.4666 17.117C80.09 21.5478 82.3152 23.5662 84.7374 23.5662C87.1595 23.5662 93.4019 28.6074 94.0026 34.653C94.6032 40.6985 97.8327 42.7169 102.273 44.3317" stroke="white" stroke-width="0.620217" stroke-linecap="round" stroke-linejoin="round"/>
<path d="M105.089 44.9424C107.01 45.4238 108.965 45.753 110.938 45.927C113.764 46.1239 115.782 46.1239 117.83 48.3491" stroke="white" stroke-width="0.620217" stroke-linecap="round" stroke-linejoin="round"/>
<path d="M67.3983 17.7471C69.3532 19.526 70.8697 21.7334 71.8291 24.1963C73.0401 27.8197 79.2924 28.8338 82.5121 28.627" stroke="white" stroke-width="0.620217" stroke-linecap="round" stroke-linejoin="round"/>
<path d="M85.141 13.0899C85.141 13.0899 82.5121 8.24565 77.8845 6.19765C73.2568 4.14966 69.4168 6.99519 63.1153 9.6241C56.8137 12.253 53.0328 10.4315 53.0328 10.4315" stroke="white" stroke-width="0.620217" stroke-linecap="round" stroke-linejoin="round"/>
<path d="M98.837 51.9922C98.837 51.9922 102.46 57.8408 107.305 61.2672C112.149 64.6937 117.584 67.3128 114.965 75.7804C112.346 84.2481 110.121 88.8856 116.373 94.3305C122.625 99.7754 124.841 108.44 122.419 111.866" stroke="white" stroke-width="0.620217" stroke-linecap="round" stroke-linejoin="round"/>
<path d="M83.3687 31C83.3687 31 87.3662 34.5052 86.2043 38.0006C85.0425 41.496 79.5385 43.5046 82.6991 46.3403C85.8597 49.1759 92.368 46.675 93.8745 47.1772C94.831 47.5204 95.6894 48.0915 96.3754 48.8412" stroke="white" stroke-width="0.620217" stroke-linecap="round" stroke-linejoin="round"/>
<path d="M85.1311 29.1982C85.1311 29.1982 89.6997 31.1675 89.9754 35.2142C90.2511 39.261 87.0806 41.4271 87.8191 43.0911C88.5576 44.7551 90.9994 42.8548 93.7268 43.8296" stroke="white" stroke-width="0.620217" stroke-linecap="round" stroke-linejoin="round"/>
<path d="M4.12709 45.3457L43.6002 45.3457C45.8025 45.3457 47.5879 43.5604 47.5879 41.358V25.3876C47.5879 23.1853 45.8025 21.3999 43.6002 21.3999L4.12709 21.3999C1.92476 21.3999 0.139416 23.1853 0.139416 25.3876V41.358C0.139416 43.5604 1.92476 45.3457 4.12709 45.3457Z" fill="#197BEB"/>
<path d="M47.5879 39.0737V51.9426L40.4199 43.6817" fill="#197BEB"/>
<path d="M33.5079 36.2678C34.8674 36.2678 35.9694 35.1657 35.9694 33.8063C35.9694 32.4468 34.8674 31.3447 33.5079 31.3447C32.1485 31.3447 31.0464 32.4468 31.0464 33.8063C31.0464 35.1657 32.1485 36.2678 33.5079 36.2678Z" fill="white"/>
<path d="M20.511 33.8063C20.511 33.3194 20.6554 32.8435 20.9258 32.4387C21.1963 32.0339 21.5807 31.7184 22.0305 31.5321C22.4803 31.3458 22.9752 31.297 23.4527 31.392C23.9302 31.487 24.3688 31.7214 24.7131 32.0657C25.0573 32.41 25.2918 32.8486 25.3867 33.326C25.4817 33.8035 25.433 34.2985 25.2467 34.7482C25.0604 35.198 24.7449 35.5825 24.3401 35.8529C23.9353 36.1234 23.4594 36.2678 22.9725 36.2678C22.3197 36.2678 21.6936 36.0085 21.232 35.5468C20.7703 35.0852 20.511 34.4591 20.511 33.8063Z" fill="white"/>
<path d="M12.4372 36.2678C13.7967 36.2678 14.8988 35.1657 14.8988 33.8063C14.8988 32.4468 13.7967 31.3447 12.4372 31.3447C11.0778 31.3447 9.97571 32.4468 9.97571 33.8063C9.97571 35.1657 11.0778 36.2678 12.4372 36.2678Z" fill="white"/>
<path d="M123.639 89.4858L126.465 92.7154" stroke="white" stroke-width="0.620217" stroke-linecap="round" stroke-linejoin="round"/>
<path d="M128.474 94.1235C129.917 95.8646 130.881 97.9517 131.271 100.179C131.662 102.406 131.464 104.697 130.699 106.825" stroke="white" stroke-width="0.620217" stroke-linecap="round" stroke-linejoin="round"/>
</svg>
