<svg width="242" height="180" viewBox="0 0 242 180" fill="none" xmlns="http://www.w3.org/2000/svg">
<path d="M121 180C172.736 180 214.677 177.551 214.677 174.531C214.677 171.51 172.736 169.062 121 169.062C69.2637 169.062 27.3232 171.51 27.3232 174.531C27.3232 177.551 69.2637 180 121 180Z" fill="#F5F5F5"/>
<path d="M63.1967 67.2827C62.7715 68.249 62.3029 69.2926 61.8922 70.312C61.4815 71.3315 61.0563 72.3799 60.6843 73.4235C59.921 75.4579 59.309 77.5459 58.8532 79.6705L58.7131 80.4436L58.6648 80.7334C58.6648 80.8156 58.6648 80.9219 58.6358 81.0185C58.6174 81.4889 58.6271 81.96 58.6648 82.4293C58.7566 83.4487 58.9209 84.5406 59.1479 85.6325C59.5538 87.8212 60.0707 90.0774 60.5974 92.2999L58.1188 93.2662C56.9635 91.16 55.9795 88.9643 55.1765 86.7003C54.7534 85.5219 54.4112 84.3161 54.1522 83.0912C54.0071 82.4135 53.9166 81.7252 53.8817 81.033C53.8817 80.8397 53.8817 80.6561 53.8817 80.4484C53.8817 80.2406 53.8817 80.0087 53.9155 79.8735L54.0121 78.9072C54.1565 77.6627 54.3775 76.4283 54.674 75.2111C54.9446 74.0033 55.2924 72.8292 55.6403 71.6697C55.9882 70.5101 56.423 69.3699 56.882 68.249C57.1091 67.6886 57.3651 67.1329 57.5874 66.5773C57.8096 66.0217 58.0705 65.4903 58.3797 64.896L63.1967 67.2827Z" fill="#E4897B"/>
<path d="M60.467 91.6475L62.3512 93.4882L58.2397 95.4208C58.2397 95.4208 57.2444 93.6767 57.9353 92.1016L60.467 91.6475Z" fill="#E4897B"/>
<path d="M63.8731 96.2277L60.3993 97.6481L58.2445 95.4015L62.3512 93.4883L63.8731 96.2277Z" fill="#E4897B"/>
<path opacity="0.4" d="M134.243 94.2466C127.407 93.4791 120.952 90.7019 115.694 86.2663C110.436 81.8307 106.611 75.9358 104.703 69.3268C102.795 62.7177 102.889 55.6913 104.974 49.1358C107.058 42.5803 111.04 36.79 116.415 32.4969C121.79 28.2039 128.317 25.6008 135.171 25.0167C142.025 24.4327 148.899 25.8939 154.922 29.2157C160.946 32.5375 165.85 37.5707 169.014 43.6791C172.177 49.7874 173.459 56.6966 172.696 63.5332C172.19 68.0754 170.793 72.4733 168.586 76.4755C166.379 80.4777 163.405 84.0057 159.834 86.858C156.263 89.7103 152.165 91.831 147.774 93.0987C143.383 94.3665 138.785 94.7566 134.243 94.2466Z" fill="#FAFAFA"/>
<path opacity="0.4" d="M159.55 32.2692L106.646 74.5395C106.424 74.0563 106.206 73.5732 106.003 73.09C104.677 69.9352 103.829 66.6003 103.486 63.1952L149.182 26.6841C152.933 27.9355 156.441 29.8249 159.55 32.2692Z" fill="#FAFAFA"/>
<path opacity="0.4" d="M171.759 50.7883L122.019 90.5269C117.294 88.0636 113.199 84.5457 110.052 80.2456L164.362 36.8496C167.863 40.8679 170.394 45.6368 171.759 50.7883Z" fill="#FAFAFA"/>
<path d="M98.9638 46.3819L98.5048 46.2273C99.2997 43.8816 100.299 41.6102 101.491 39.4391L101.911 39.671C100.735 41.8178 99.7487 44.0633 98.9638 46.3819ZM104.829 35.1053L104.438 34.8203C108.408 29.4515 113.605 25.1098 119.594 22.1571L119.811 22.5919C113.89 25.5141 108.753 29.8095 104.829 35.1198V35.1053ZM157.777 23.2538C156.198 22.407 154.565 21.6661 152.887 21.0362L153.061 20.582C154.755 21.2268 156.404 21.9821 157.999 22.8431L157.777 23.2538Z" fill="#197BEB"/>
<path opacity="0.3" d="M98.9638 46.3819L98.5048 46.2273C99.2997 43.8816 100.299 41.6102 101.491 39.4391L101.911 39.671C100.735 41.8178 99.7487 44.0633 98.9638 46.3819ZM104.829 35.1053L104.438 34.8203C108.408 29.4515 113.605 25.1098 119.594 22.1571L119.811 22.5919C113.89 25.5141 108.753 29.8095 104.829 35.1198V35.1053ZM157.777 23.2538C156.198 22.407 154.565 21.6661 152.887 21.0362L153.061 20.582C154.755 21.2268 156.404 21.9821 157.999 22.8431L157.777 23.2538Z" fill="black"/>
<path d="M174.083 41.9078C169.609 32.6292 161.736 25.428 152.097 21.797C142.457 18.1661 131.79 18.3838 122.306 22.4052C112.823 26.4266 105.251 33.9432 101.159 43.3966C97.068 52.8501 96.7714 63.5155 100.331 73.1817C97.1037 74.3123 93.9149 75.525 90.7455 76.7763C86.175 78.5897 81.6463 80.4836 77.1595 82.4581C72.6759 84.4438 68.2117 86.4682 63.7909 88.5844C61.5733 89.6231 59.3847 90.7198 57.1767 91.7828C56.0281 92.2763 54.9874 92.9904 54.1136 93.8844C53.6407 94.3796 53.2243 94.9256 52.8719 95.5126C52.4419 96.2069 52.1163 96.9606 51.9056 97.7496C51.542 99.1713 51.6993 100.676 52.3488 101.992C52.9983 103.308 54.0973 104.348 55.447 104.924C56.1965 105.239 56.9873 105.444 57.7951 105.533C58.4774 105.61 59.1662 105.61 59.8485 105.533C61.0883 105.383 62.2866 104.99 63.3754 104.378C65.5641 103.272 67.7672 102.204 69.9413 101.069C74.2896 98.8512 78.6379 96.5369 82.9331 94.1888C87.2282 91.8407 91.5282 89.3815 95.7219 86.8595C98.6207 85.1057 101.549 83.3132 104.418 81.4387C109.929 90.1384 118.576 96.3846 128.567 98.8829C138.557 101.381 149.126 99.9399 158.083 94.858C167.041 89.776 173.699 81.4428 176.68 71.5852C179.66 61.7276 178.734 51.1011 174.093 41.9078H174.083ZM152.119 88.0626C146.504 90.834 140.194 91.8783 133.986 91.0635C127.777 90.2486 121.95 87.6112 117.241 83.4847C112.531 79.3582 109.151 73.9279 107.528 67.8805C105.905 61.8331 106.111 55.4401 108.121 49.5099C110.131 43.5797 113.854 38.3786 118.819 34.5643C123.785 30.75 129.77 28.4937 136.018 28.0808C142.266 27.6679 148.496 29.1169 153.92 32.2446C159.345 35.3722 163.72 40.0381 166.493 45.6522C168.334 49.3806 169.423 53.4352 169.697 57.5845C169.972 61.7338 169.426 65.8964 168.091 69.8347C166.756 73.773 164.659 77.4098 161.918 80.5374C159.178 83.6649 155.848 86.222 152.119 88.0626Z" fill="#197BEB"/>
<path opacity="0.3" d="M174.083 41.9078C169.609 32.6292 161.736 25.428 152.097 21.797C142.457 18.1661 131.79 18.3838 122.306 22.4052C112.823 26.4266 105.251 33.9432 101.159 43.3966C97.068 52.8501 96.7714 63.5155 100.331 73.1817C97.1037 74.3123 93.9149 75.525 90.7455 76.7763C86.175 78.5897 81.6463 80.4836 77.1595 82.4581C72.6759 84.4438 68.2117 86.4682 63.7909 88.5844C61.5733 89.6231 59.3847 90.7198 57.1767 91.7828C56.0281 92.2763 54.9874 92.9904 54.1136 93.8844C53.6407 94.3796 53.2243 94.9256 52.8719 95.5126C52.4419 96.2069 52.1163 96.9606 51.9056 97.7496C51.542 99.1713 51.6993 100.676 52.3488 101.992C52.9983 103.308 54.0973 104.348 55.447 104.924C56.1965 105.239 56.9873 105.444 57.7951 105.533C58.4774 105.61 59.1662 105.61 59.8485 105.533C61.0883 105.383 62.2866 104.99 63.3754 104.378C65.5641 103.272 67.7672 102.204 69.9413 101.069C74.2896 98.8512 78.6379 96.5369 82.9331 94.1888C87.2282 91.8407 91.5282 89.3815 95.7219 86.8595C98.6207 85.1057 101.549 83.3132 104.418 81.4387C109.929 90.1384 118.576 96.3846 128.567 98.8829C138.557 101.381 149.126 99.9399 158.083 94.858C167.041 89.776 173.699 81.4428 176.68 71.5852C179.66 61.7276 178.734 51.1011 174.093 41.9078H174.083ZM152.119 88.0626C146.504 90.834 140.194 91.8783 133.986 91.0635C127.777 90.2486 121.95 87.6112 117.241 83.4847C112.531 79.3582 109.151 73.9279 107.528 67.8805C105.905 61.8331 106.111 55.4401 108.121 49.5099C110.131 43.5797 113.854 38.3786 118.819 34.5643C123.785 30.75 129.77 28.4937 136.018 28.0808C142.266 27.6679 148.496 29.1169 153.92 32.2446C159.345 35.3722 163.72 40.0381 166.493 45.6522C168.334 49.3806 169.423 53.4352 169.697 57.5845C169.972 61.7338 169.426 65.8964 168.091 69.8347C166.756 73.773 164.659 77.4098 161.918 80.5374C159.178 83.6649 155.848 86.222 152.119 88.0626Z" fill="black"/>
<path d="M76.5508 50.0297C76.5508 50.3147 76.7005 50.5466 76.889 50.5466C77.0774 50.5466 77.2272 50.3147 77.2272 50.0297C77.2272 49.7446 77.0774 49.5127 76.889 49.5127C76.7005 49.5127 76.5508 49.7639 76.5508 50.0297Z" fill="#263238"/>
<path d="M76.6861 50.5464C77.028 51.4214 77.4881 52.2456 78.0534 52.9959C77.8579 53.1357 77.6343 53.2311 77.3981 53.2753C77.1619 53.3196 76.9188 53.3116 76.6861 53.252V50.5464Z" fill="#DE5753"/>
<path d="M75.5507 48.44C75.5238 48.44 75.4972 48.4339 75.4729 48.4222C75.4487 48.4105 75.4274 48.3934 75.4106 48.3723C75.3854 48.3355 75.3754 48.2903 75.3826 48.2462C75.3898 48.2022 75.4137 48.1626 75.4493 48.1356C75.6621 47.9742 75.9107 47.8667 76.174 47.8221C76.4373 47.7775 76.7075 47.7972 76.9615 47.8795C76.9843 47.8858 77.0056 47.8967 77.0239 47.9116C77.0422 47.9266 77.0572 47.9452 77.0679 47.9663C77.0786 47.9874 77.0847 48.0105 77.0859 48.0341C77.0871 48.0577 77.0834 48.0813 77.0749 48.1034C77.0664 48.1255 77.0534 48.1455 77.0367 48.1622C77.0199 48.179 76.9999 48.192 76.9778 48.2005C76.9558 48.209 76.9322 48.2128 76.9085 48.2116C76.8849 48.2104 76.8618 48.2043 76.8407 48.1936C76.6389 48.1317 76.4252 48.1191 76.2176 48.157C76.0099 48.1948 75.8144 48.2819 75.6474 48.411C75.6187 48.43 75.5851 48.4401 75.5507 48.44Z" fill="#263238"/>
<path d="M66.7912 52.1797C67.2744 54.7742 67.8058 59.5331 65.9892 61.2676C65.9892 61.2676 66.6995 63.9008 71.5261 63.9008C76.8406 63.9008 74.0577 61.2676 74.0577 61.2676C71.1589 60.5719 71.241 58.4267 71.7435 56.4072L66.7912 52.1797Z" fill="#E4897B"/>
<path d="M63.82 62.6347C64.3949 61.7409 63.4286 59.5716 63.4286 59.5716C63.4286 59.5716 71.9706 57.4216 75.4637 60.7215C76.1884 61.4027 75.3864 62.4076 75.3864 62.4076L63.82 62.6347Z" fill="#197BEB"/>
<path opacity="0.1" d="M63.82 62.6347C64.3949 61.7409 63.4286 59.5716 63.4286 59.5716C63.4286 59.5716 71.9706 57.4216 75.4637 60.7215C76.1884 61.4027 75.3864 62.4076 75.3864 62.4076L63.82 62.6347Z" fill="black"/>
<path d="M49.688 161.211C49.2386 161.211 48.5187 160.462 48.3062 160.182C48.297 160.168 48.2921 160.152 48.2921 160.136C48.2921 160.119 48.297 160.103 48.3062 160.09C48.314 160.076 48.3253 160.065 48.3389 160.058C48.3525 160.05 48.3679 160.046 48.3835 160.046C48.4366 160.046 49.6203 160.153 49.944 160.573C49.9792 160.617 50.0044 160.669 50.0177 160.724C50.0311 160.779 50.0323 160.836 50.0213 160.892C50.0171 160.964 49.9907 161.033 49.9457 161.089C49.9007 161.145 49.8393 161.186 49.7701 161.206L49.688 161.211ZM48.5671 160.244C48.9198 160.65 49.485 161.109 49.7266 161.051C49.7266 161.051 49.8232 161.027 49.8522 160.873C49.8586 160.84 49.8575 160.807 49.8492 160.775C49.8408 160.743 49.8253 160.714 49.8039 160.689C49.446 160.418 49.0154 160.26 48.5671 160.235V160.244Z" fill="#197BEB"/>
<path d="M48.6203 160.235C48.5335 160.243 48.4461 160.243 48.3594 160.235C48.3441 160.233 48.3295 160.228 48.3175 160.218C48.3054 160.209 48.2965 160.196 48.2917 160.181C48.2849 160.168 48.2814 160.153 48.2814 160.138C48.2814 160.123 48.2849 160.108 48.2917 160.094C48.3256 160.065 49.0358 159.326 49.5721 159.326C49.6363 159.325 49.7 159.337 49.7591 159.362C49.8183 159.387 49.8714 159.424 49.9151 159.471C49.9632 159.511 49.9961 159.567 50.0084 159.628C50.0207 159.69 50.0117 159.754 49.9827 159.809C49.8426 160.08 49.1034 160.235 48.6203 160.235ZM48.5575 160.065C49.0406 160.065 49.7412 159.916 49.8571 159.703C49.8571 159.703 49.891 159.64 49.8136 159.563C49.7855 159.532 49.7511 159.508 49.7127 159.493C49.6743 159.477 49.6329 159.469 49.5914 159.471C49.1953 159.562 48.8354 159.769 48.5575 160.065Z" fill="#197BEB"/>
<path d="M81.5707 172.178C81.2045 172.175 80.8392 172.141 80.4788 172.076C80.4609 172.073 80.4447 172.063 80.4333 172.049C80.4218 172.035 80.4156 172.017 80.416 171.999C80.4133 171.982 80.4155 171.965 80.4223 171.95C80.4292 171.934 80.4404 171.921 80.4546 171.912C80.5078 171.883 81.7446 171.173 82.3389 171.337C82.394 171.35 82.446 171.373 82.4916 171.406C82.5373 171.44 82.5758 171.482 82.6046 171.53C82.6424 171.584 82.6628 171.648 82.6628 171.714C82.6628 171.78 82.6424 171.844 82.6046 171.898C82.4645 172.115 82.0248 172.178 81.5707 172.178ZM80.7542 171.951C81.4112 172.047 82.3099 172.043 82.4741 171.811C82.4983 171.782 82.5176 171.728 82.4741 171.627C82.4372 171.567 82.3783 171.524 82.3099 171.506C81.933 171.41 81.1842 171.728 80.7542 171.951Z" fill="#197BEB"/>
<path d="M80.4981 172.081C80.4823 172.086 80.4656 172.086 80.4498 172.081C80.4364 172.073 80.426 172.06 80.4199 172.046C80.4139 172.031 80.4125 172.015 80.416 171.999C80.4487 171.496 80.6417 171.017 80.9668 170.632C81.0325 170.575 81.1097 170.533 81.193 170.509C81.2764 170.485 81.364 170.479 81.4499 170.492C81.6818 170.492 81.7494 170.632 81.7639 170.724C81.8267 171.125 80.9812 171.893 80.5512 172.086L80.4981 172.081ZM81.3629 170.632C81.2566 170.631 81.1536 170.669 81.073 170.738C80.7998 171.043 80.6307 171.427 80.5899 171.835C81.0247 171.569 81.6045 170.97 81.5562 170.729C81.5562 170.729 81.5562 170.647 81.3919 170.632H81.3629Z" fill="#197BEB"/>
<path d="M76.5943 171.994H80.1454L80.4981 163.776H76.947L76.5943 171.994Z" fill="#E4897B"/>
<path d="M44.9725 157.886L47.939 159.829L54.4904 154.297L51.5191 152.35L44.9725 157.886Z" fill="#E4897B"/>
<path d="M48.427 159.645L45.3445 157.119C45.2901 157.074 45.2217 157.049 45.1513 157.049C45.0808 157.049 45.0125 157.074 44.958 157.119L42.4167 159.114C42.3553 159.163 42.3057 159.225 42.2716 159.296C42.2375 159.366 42.2198 159.444 42.2198 159.522C42.2198 159.601 42.2375 159.678 42.2716 159.749C42.3057 159.819 42.3553 159.882 42.4167 159.93C43.5086 160.795 44.0835 161.162 45.4411 162.274C46.277 162.955 48.34 165.042 49.5044 165.984C50.6688 166.926 51.7365 165.912 51.35 165.424C49.6155 163.225 48.9343 161.346 48.7362 160.182C48.7019 159.971 48.592 159.78 48.427 159.645Z" fill="#263238"/>
<path d="M80.1212 171.583H76.256C76.1856 171.584 76.1172 171.608 76.062 171.652C76.0068 171.695 75.9679 171.756 75.9517 171.825L75.2511 174.98C75.2335 175.056 75.2335 175.136 75.2512 175.212C75.2688 175.289 75.3036 175.36 75.353 175.421C75.4023 175.482 75.4649 175.531 75.536 175.564C75.6071 175.598 75.6848 175.614 75.7632 175.613C77.1595 175.589 79.1791 175.507 80.9377 175.507C82.9911 175.507 84.769 175.618 87.1751 175.618C88.6245 175.618 89.04 174.144 88.4264 174.014C85.6532 173.405 83.3824 173.342 80.986 171.859C80.7289 171.689 80.4294 171.593 80.1212 171.583Z" fill="#263238"/>
<path d="M58.9933 62.3256C55.9157 63.7751 54.1619 73.4863 54.1619 73.4863L61.6844 76.4866C62.7856 73.7979 63.6756 71.0275 64.3466 68.2007C65.3805 63.7267 62.1434 60.8279 58.9933 62.3256Z" fill="#263238"/>
<path d="M62.9841 67.7995C61.124 69.6838 60.2737 73.375 59.9016 75.7762L61.7038 76.4961C62.7736 73.8837 63.6457 71.1947 64.3127 68.4517C64.1533 67.4275 63.7571 67.0168 62.9841 67.7995Z" fill="#203048"/>
<path d="M79.5173 62.2582C79.5173 62.2582 83.2955 66.5292 79.7299 92.9378H60.7471C60.6167 90.0389 62.4478 75.8103 59.6359 62.0794C61.7338 61.6726 63.8561 61.4047 65.9893 61.2774C68.6764 61.1178 71.3706 61.1178 74.0578 61.2774C75.9002 61.4628 77.7255 61.7907 79.5173 62.2582Z" fill="#263238"/>
<path d="M81.2517 72.5102L78.0533 66.9976C77.4359 69.5697 77.1838 72.2159 77.3044 74.8583C77.3914 76.7522 79.1259 83.7675 80.6865 84.7917C81.1006 80.7114 81.2893 76.6113 81.2517 72.5102Z" fill="#203048"/>
<path d="M81.6963 66.0312C82.1794 68.3793 82.6626 70.7854 83.1795 73.1431C83.6965 75.5009 84.2328 77.8683 84.856 80.1535C85.0155 80.7188 85.1652 81.2986 85.3392 81.8397L85.4696 82.2552L85.5324 82.463V82.4388C85.4986 82.3953 85.46 82.3905 85.4889 82.4388C85.6875 82.6557 85.9414 82.8143 86.2233 82.8978C86.6801 83.0678 87.1504 83.1987 87.6293 83.2891C89.9135 83.6512 92.2263 83.8016 94.5382 83.7385L94.9972 86.3668C94.3498 86.5745 93.7459 86.7243 93.1081 86.8741C92.4704 87.0238 91.8423 87.1495 91.1997 87.2461C89.8702 87.4674 88.5223 87.5581 87.1751 87.5166C86.4263 87.4965 85.6816 87.3993 84.9527 87.2268C84.0258 87.024 83.1549 86.6199 82.4017 86.0431C81.9097 85.6458 81.5037 85.1527 81.2083 84.5936C81.131 84.4487 81.0633 84.2844 81.0005 84.1443L80.9136 83.9172L80.7348 83.4341C80.4884 82.8205 80.2855 82.2166 80.0632 81.6126C79.2467 79.1969 78.5655 76.757 77.9664 74.322C77.3673 71.887 76.8503 69.4567 76.4203 66.9589L81.6963 66.0312Z" fill="#E4897B"/>
<path d="M74.7777 64.8474C73.7776 68.0893 77.8311 77.757 77.8311 77.757L85.9045 75.7278C85.9045 75.7278 85.5953 70.7031 83.7545 66.7171C80.9813 60.7068 75.9759 60.9581 74.7777 64.8474Z" fill="#263238"/>
<path d="M94.4706 83.7387L98.4903 83.6372L96.5578 87.8212C96.5578 87.8212 94.9199 88.0386 93.5768 85.8307L92.1611 84.1397L93.7893 83.816C94.0135 83.7688 94.2416 83.7429 94.4706 83.7387Z" fill="#E4897B"/>
<path d="M101.027 84.4151L98.7271 87.884L96.5578 87.8212L98.4903 83.6372L101.027 84.4151Z" fill="#E4897B"/>
<path d="M80.4981 163.776L80.3145 168.013H76.7634L76.947 163.776H80.4981Z" fill="#CE6F64"/>
<path d="M51.5191 152.35L54.4904 154.297L51.1084 157.147L48.1419 155.205L51.5191 152.35Z" fill="#CE6F64"/>
<path d="M67.0136 49.4158C67.2261 52.9283 67.173 55.0009 68.9461 56.8031C71.6131 59.5232 75.9565 57.9143 76.7972 54.3874C77.5557 51.2276 77.0823 46.0096 73.6423 44.6085C72.8833 44.3022 72.0588 44.1936 71.2464 44.2932C70.4339 44.3927 69.6601 44.697 68.9975 45.1776C68.3348 45.6581 67.8052 46.2991 67.4581 47.0405C67.1111 47.7818 66.9581 48.5991 67.0136 49.4158Z" fill="#E4897B"/>
<path d="M62.8778 48.7978C63.7523 52.001 65.8105 55.6922 68.4726 55.929C71.7773 56.2189 73.2703 52.803 73.7051 49.2761C75.686 47.9185 74.6472 46.4255 76.6329 46.2371C79.1839 45.9955 78.3674 41.3284 75.0096 40.5795C75.0096 40.5795 76.1353 42.6812 73.7727 41.6183C71.5259 40.5505 69.0297 40.1177 66.5546 40.3669C66.5546 40.3669 69.5694 41.8743 66.6222 42.5459C63.675 43.2175 62.7957 45.0341 64.1533 46.1308C64.1533 46.1357 62.3029 46.6913 62.8778 48.7978Z" fill="#263238"/>
<path d="M71.6904 50.0008C71.7553 50.8739 72.1069 51.7011 72.6905 52.3538C73.4635 53.2089 74.2703 52.6775 74.4056 51.6387C74.5312 50.7062 74.2752 49.136 73.3282 48.6625C72.3813 48.1891 71.6276 48.9476 71.6904 50.0008Z" fill="#E4897B"/>
<path d="M72.9948 92.9374C72.9948 92.9374 76.4542 117.988 73.7292 128.028C69.4099 143.924 52.8961 157.34 52.8961 157.34L47.2964 153.669C47.2964 153.669 61.3607 142.339 63.0807 129.028C64.6268 117.08 60.7472 102.629 60.7472 92.9326L72.9948 92.9374Z" fill="#197BEB"/>
<path opacity="0.1" d="M72.9948 92.9374C72.9948 92.9374 76.4542 117.988 73.7292 128.028C69.4099 143.924 52.8961 157.34 52.8961 157.34L47.2964 153.669C47.2964 153.669 61.3607 142.339 63.0807 129.028C64.6268 117.08 60.7472 102.629 60.7472 92.9326L72.9948 92.9374Z" fill="black"/>
<path d="M74.425 107.258C73.504 106.203 72.4902 105.233 71.3956 104.359C71.9851 112.49 72.4682 124.535 71.9319 133.091C72.653 131.451 73.2537 129.76 73.7292 128.033C75.0579 123.129 74.9178 114.66 74.425 107.258Z" fill="#197BEB"/>
<path opacity="0.3" d="M74.425 107.258C73.504 106.203 72.4902 105.233 71.3956 104.359C71.9851 112.49 72.4682 124.535 71.9319 133.091C72.653 131.451 73.2537 129.76 73.7292 128.033C75.0579 123.129 74.9178 114.66 74.425 107.258Z" fill="black"/>
<path d="M55.1524 156.089C55.1765 156.089 52.9831 157.539 52.9831 157.539L46.8665 153.528L48.7991 151.929L55.1524 156.089Z" fill="#197BEB"/>
<path opacity="0.3" d="M55.1524 156.089C55.1765 156.089 52.9831 157.539 52.9831 157.539L46.8665 153.528L48.7991 151.929L55.1524 156.089Z" fill="black"/>
<path d="M79.7298 92.9375C79.7298 92.9375 85.0734 115.597 85.4503 126.424C85.8754 138.561 81.6383 167.192 81.6383 167.192H75.6231C75.6231 167.192 74.8839 138.339 74.6182 127.284C74.3235 115.23 67.2502 92.9375 67.2502 92.9375H79.7298Z" fill="#197BEB"/>
<path opacity="0.1" d="M79.7298 92.9375C79.7298 92.9375 85.0734 115.597 85.4503 126.424C85.8754 138.561 81.6383 167.192 81.6383 167.192H75.6231C75.6231 167.192 74.8839 138.339 74.6182 127.284C74.3235 115.23 67.2502 92.9375 67.2502 92.9375H79.7298Z" fill="black"/>
<path d="M82.793 164.8C82.822 164.8 82.4548 167.293 82.4548 167.293H75.14L74.9419 165.066L82.793 164.8Z" fill="#197BEB"/>
<path opacity="0.3" d="M82.793 164.8C82.822 164.8 82.4548 167.293 82.4548 167.293H75.14L74.9419 165.066L82.793 164.8Z" fill="black"/>
<path d="M172.213 71.1621C172.624 71.5486 172.948 71.8772 173.286 72.2444C173.624 72.6115 173.943 72.9691 174.252 73.3411C174.88 74.0803 175.47 74.8582 176.04 75.6409C177.178 77.2109 178.191 78.8684 179.069 80.5979L179.248 80.9506C179.335 81.1213 179.408 81.2991 179.465 81.4821C179.582 81.8356 179.653 82.2025 179.678 82.574C179.709 83.229 179.619 83.8843 179.412 84.5065C179.059 85.5402 178.535 86.507 177.861 87.3668C176.647 88.9259 175.215 90.3024 173.61 91.4541L172.407 90.0724C172.972 89.4104 173.561 88.7002 174.088 87.99C174.624 87.3019 175.108 86.5752 175.537 85.8159C175.938 85.1533 176.235 84.4331 176.417 83.6804C176.479 83.4111 176.491 83.1325 176.45 82.859C176.433 82.767 176.404 82.6777 176.363 82.5933C176.345 82.5562 176.324 82.5207 176.301 82.487L176.146 82.2261C175.214 80.7068 174.203 79.2376 173.117 77.8247C172.58 77.1144 172.006 76.4332 171.426 75.7616C171.141 75.4234 170.846 75.0949 170.551 74.7664C170.257 74.4378 169.938 74.1093 169.682 73.8532L172.213 71.1621Z" fill="#E4897B"/>
<path d="M172.87 89.6666L169.261 89.0771L171.15 92.2369C171.15 92.2369 173.474 92.1548 174.136 90.7875L172.87 89.6666Z" fill="#E4897B"/>
<path d="M166.594 90.5362L168.314 93.1017L171.15 92.2369L169.261 89.0771L166.594 90.5362Z" fill="#E4897B"/>
<path d="M172.696 172.134C172.451 172.155 172.206 172.089 172.006 171.946C171.945 171.889 171.9 171.817 171.876 171.737C171.851 171.658 171.848 171.573 171.865 171.492C171.869 171.44 171.887 171.39 171.916 171.347C171.946 171.305 171.987 171.271 172.035 171.25C172.455 171.062 173.556 171.767 173.682 171.849C173.696 171.858 173.707 171.871 173.714 171.887C173.72 171.903 173.72 171.92 173.716 171.936C173.714 171.953 173.707 171.968 173.696 171.98C173.684 171.993 173.669 172.001 173.653 172.004C173.34 172.083 173.019 172.127 172.696 172.134ZM172.213 171.385C172.178 171.38 172.142 171.38 172.107 171.385C172.086 171.395 172.068 171.411 172.055 171.431C172.042 171.45 172.035 171.473 172.035 171.497C172.022 171.55 172.023 171.607 172.038 171.66C172.053 171.713 172.082 171.762 172.121 171.801C172.305 171.965 172.779 171.989 173.411 171.864C173.049 171.624 172.641 171.461 172.213 171.385Z" fill="#197BEB"/>
<path d="M173.663 171.999H173.619C173.276 171.801 172.614 171.033 172.696 170.613C172.712 170.546 172.749 170.487 172.801 170.444C172.853 170.4 172.918 170.375 172.986 170.371C173.052 170.362 173.118 170.367 173.181 170.387C173.244 170.407 173.301 170.442 173.349 170.487C173.745 170.835 173.75 171.879 173.75 171.937C173.749 171.951 173.744 171.965 173.737 171.978C173.729 171.991 173.719 172.001 173.706 172.009L173.663 171.999ZM173.044 170.55H173.006C172.899 170.55 172.875 170.608 172.865 170.651C172.817 170.898 173.228 171.487 173.571 171.763C173.579 171.357 173.463 170.959 173.238 170.622C173.209 170.595 173.174 170.575 173.137 170.562C173.099 170.55 173.059 170.546 173.02 170.55H173.044Z" fill="#197BEB"/>
<path d="M156.231 172.134C155.922 172.164 155.613 172.085 155.356 171.912C155.298 171.861 155.254 171.796 155.226 171.724C155.198 171.651 155.188 171.573 155.197 171.496C155.2 171.449 155.215 171.404 155.24 171.364C155.266 171.325 155.301 171.292 155.342 171.269C155.791 171.018 157.231 171.753 157.395 171.844C157.41 171.854 157.422 171.868 157.43 171.884C157.438 171.9 157.441 171.918 157.439 171.936C157.436 171.953 157.428 171.969 157.416 171.981C157.404 171.993 157.388 172.001 157.371 172.004C156.996 172.083 156.614 172.127 156.231 172.134ZM155.588 171.385C155.533 171.382 155.478 171.393 155.429 171.419C155.412 171.427 155.397 171.44 155.387 171.457C155.376 171.473 155.371 171.492 155.371 171.511C155.364 171.561 155.368 171.613 155.385 171.661C155.402 171.709 155.43 171.752 155.468 171.786C155.69 171.984 156.284 172.018 157.086 171.883C156.618 171.634 156.112 171.466 155.588 171.385Z" fill="#197BEB"/>
<path d="M157.357 171.999H157.318C156.888 171.806 156.033 171.033 156.1 170.612C156.1 170.516 156.187 170.395 156.424 170.371C156.511 170.362 156.598 170.37 156.681 170.396C156.764 170.422 156.841 170.464 156.907 170.521C157.361 170.897 157.448 171.873 157.448 171.917C157.45 171.932 157.448 171.947 157.442 171.96C157.436 171.974 157.427 171.986 157.415 171.994C157.396 172.002 157.376 172.004 157.357 171.999ZM156.492 170.55H156.439C156.284 170.55 156.274 170.627 156.27 170.646C156.231 170.893 156.811 171.506 157.236 171.772C157.194 171.359 157.025 170.969 156.753 170.656C156.679 170.593 156.588 170.556 156.492 170.55Z" fill="#197BEB"/>
<path d="M163.067 60.0547C162.927 62.2385 162.55 66.6738 164.227 67.9009C164.227 67.9009 163.923 70.1379 159.966 70.6597C155.617 71.225 157.603 68.7706 157.603 68.7706C159.908 67.8913 159.613 66.1375 158.985 64.5334L163.067 60.0547Z" fill="#E4897B"/>
<path d="M154.066 56.1944C154.043 56.1945 154.019 56.1893 153.997 56.1793C153.976 56.1693 153.956 56.1547 153.941 56.1365C153.803 55.9726 153.628 55.8434 153.431 55.7595C153.233 55.6756 153.019 55.6392 152.805 55.6533C152.783 55.6574 152.76 55.6569 152.737 55.6518C152.715 55.6466 152.694 55.637 152.675 55.6234C152.657 55.6099 152.641 55.5927 152.629 55.5729C152.618 55.5531 152.61 55.5311 152.607 55.5084C152.602 55.4629 152.614 55.4172 152.643 55.381C152.671 55.3448 152.712 55.3211 152.757 55.3151C153.03 55.2921 153.304 55.3354 153.557 55.4414C153.809 55.5474 154.032 55.7129 154.207 55.9239C154.227 55.9491 154.241 55.9797 154.245 56.0121C154.249 56.0446 154.245 56.0776 154.231 56.1074C154.217 56.1372 154.196 56.1625 154.168 56.1805C154.141 56.1984 154.109 56.2083 154.076 56.2089L154.066 56.1944Z" fill="#263238"/>
<path d="M153.313 58.335C153.141 59.0279 152.876 59.6943 152.525 60.3158C152.686 60.4026 152.865 60.4528 153.048 60.4629C153.231 60.4729 153.413 60.4425 153.583 60.3738L153.313 58.335Z" fill="#DE5753"/>
<path d="M153.506 57.8031C153.545 58.093 153.424 58.3442 153.235 58.3732C153.047 58.4022 152.859 58.18 152.825 57.8901C152.791 57.6002 152.907 57.3489 153.095 57.3248C153.284 57.3006 153.472 57.4939 153.506 57.8031Z" fill="#263238"/>
<path d="M153.182 57.3299L152.462 57.2188C152.462 57.2188 152.887 57.7164 153.182 57.3299Z" fill="#263238"/>
<path d="M161.338 171.922H157.714L157.473 163.54H161.096L161.338 171.922Z" fill="#E4897B"/>
<path d="M177.789 171.922H174.165L173.001 163.54H176.624L177.789 171.922Z" fill="#E4897B"/>
<path d="M173.943 171.516H178.011C178.08 171.515 178.148 171.54 178.2 171.586C178.252 171.631 178.287 171.694 178.296 171.763L178.779 174.985C178.788 175.066 178.78 175.149 178.754 175.226C178.729 175.304 178.688 175.376 178.633 175.436C178.579 175.497 178.512 175.545 178.437 175.578C178.362 175.611 178.281 175.628 178.199 175.628C176.784 175.604 176.098 175.521 174.31 175.521C173.209 175.521 171.6 175.633 170.083 175.633C168.566 175.633 168.483 174.13 169.116 173.995C171.952 173.386 172.402 172.545 173.353 171.738C173.52 171.601 173.727 171.522 173.943 171.516Z" fill="#263238"/>
<path d="M157.593 171.516H161.657C161.727 171.515 161.794 171.54 161.848 171.585C161.901 171.63 161.936 171.693 161.946 171.763L162.43 174.985C162.438 175.066 162.43 175.149 162.405 175.226C162.38 175.304 162.338 175.376 162.284 175.436C162.229 175.497 162.162 175.545 162.087 175.578C162.012 175.611 161.932 175.628 161.85 175.628C160.434 175.604 159.748 175.521 157.961 175.521C156.859 175.521 154.579 175.633 153.061 175.633C151.544 175.633 151.462 174.13 152.095 173.995C154.931 173.386 156.047 172.545 157.004 171.738C157.17 171.601 157.378 171.522 157.593 171.516Z" fill="#263238"/>
<path d="M157.473 163.54L157.598 167.864H161.222L161.096 163.54H157.473Z" fill="#CE6F64"/>
<path d="M176.624 163.54H173.001L173.605 167.864H177.223L176.624 163.54Z" fill="#CE6F64"/>
<path d="M163.116 55.5323C163.362 59.1172 163.541 60.6294 161.985 62.6925C159.642 65.7894 155.187 65.3111 153.873 61.8711C152.689 58.7742 152.487 53.4354 155.782 51.5608C156.506 51.1454 157.325 50.9221 158.161 50.912C158.996 50.9019 159.82 51.1054 160.555 51.5033C161.29 51.9011 161.911 52.48 162.359 53.1851C162.807 53.8903 163.067 54.6982 163.116 55.5323Z" fill="#E4897B"/>
<path d="M165.203 58.8615C167.213 59.9824 168.706 57.2188 168.706 57.2188C168.706 57.2188 165.101 57.6102 165.425 55.465C165.85 52.6193 163.811 49.16 158.7 49.6045C158.415 49.6286 158.144 49.6624 157.878 49.7059C157.343 49.4523 156.738 49.3868 156.161 49.5201C155.584 49.6534 155.069 49.9776 154.699 50.4403C153.25 50.5611 151.293 52.2907 152.622 54.576C152.715 54.3134 152.86 54.072 153.047 53.8658C153.158 55.2041 154.327 57.3299 155.786 57.47C156.1 59.3012 154.883 61.4222 155.303 63.3354C155.926 66.0942 160.579 66.7174 160.579 66.7174C160.419 66.3729 160.359 65.99 160.407 65.613C160.455 65.236 160.608 64.8802 160.85 64.5867C164.009 66.0362 166.092 64.6206 166.092 64.6206C163.937 63.8185 164.589 62.3884 164.589 62.3884C165.333 62.7188 166.176 62.7478 166.941 62.4694C167.706 62.191 168.333 61.6268 168.691 60.8955C167.975 60.9295 167.265 60.7555 166.646 60.3946C166.027 60.0336 165.526 59.5012 165.203 58.8615Z" fill="#263238"/>
<path d="M157.047 58.0206C157.056 58.3647 156.996 58.707 156.872 59.0279C156.747 59.3488 156.561 59.6419 156.323 59.8904C155.685 60.5523 154.902 60.0885 154.69 59.243C154.501 58.4796 154.607 57.2186 155.438 56.8707C155.621 56.7989 155.819 56.7739 156.014 56.798C156.209 56.8221 156.395 56.8946 156.555 57.0088C156.715 57.1231 156.844 57.2755 156.93 57.4522C157.016 57.6289 157.056 57.8243 157.047 58.0206Z" fill="#E4897B"/>
<path d="M160.057 91.4202C160.057 91.4202 160.975 115.268 163.159 129.27C164.918 140.585 172.73 167.023 172.73 167.023H177.668C177.668 167.023 173.595 141.488 172.701 130.304C170.44 101.996 176.31 95.9183 170.769 90.0239L160.057 91.4202Z" fill="#263238"/>
<path d="M164.183 98.9623C164.183 98.9623 161.951 98.5758 160.647 102.827C161.13 110.881 161.956 121.569 163.159 129.27C163.425 130.985 163.831 133.053 164.328 135.319C163.386 121.714 164.183 98.9623 164.183 98.9623Z" fill="#161F33"/>
<path d="M156.207 91.9228C156.207 91.9228 152.139 118.307 152.375 129.347C152.622 140.831 156.83 167.032 156.83 167.032H161.724C161.724 167.032 160.951 141.513 161.381 130.236C161.864 117.94 166.884 90.5361 166.884 90.5361L156.207 91.9228Z" fill="#263238"/>
<path d="M178.383 167.254H171.817L171.305 165.051L178.335 165.1L178.383 167.254Z" fill="#197BEB"/>
<path opacity="0.2" d="M178.383 167.254H171.817L171.305 165.051L178.335 165.1L178.383 167.254Z" fill="black"/>
<path d="M170.522 67.9058C172.411 68.0894 175.281 73.4571 175.281 73.4571L170.513 77.1145C170.513 77.1145 166.565 73.6504 167.034 71.7033C167.522 69.6789 168.71 67.7367 170.522 67.9058Z" fill="#197BEB"/>
<path opacity="0.1" d="M170.522 67.9058C172.411 68.0894 175.281 73.4571 175.281 73.4571L170.513 77.1145C170.513 77.1145 166.565 73.6504 167.034 71.7033C167.522 69.6789 168.71 67.7367 170.522 67.9058Z" fill="black"/>
<path d="M169.097 70.2154C168.615 70.0857 168.117 70.0303 167.619 70.0512C167.365 70.5794 167.169 71.1334 167.034 71.7035C166.551 73.6361 170.513 77.1147 170.513 77.1147L170.865 76.8442L169.097 70.2154Z" fill="#197BEB"/>
<path opacity="0.3" d="M169.097 70.2154C168.615 70.0857 168.117 70.0303 167.619 70.0512C167.365 70.5794 167.169 71.1334 167.034 71.7035C166.551 73.6361 170.513 77.1147 170.513 77.1147L170.865 76.8442L169.097 70.2154Z" fill="black"/>
<path d="M154.588 75.3703C153.211 78.8538 151.762 82.3952 150.607 85.8884C150.53 86.1106 150.467 86.3232 150.399 86.5406L150.235 87.0769C150.19 87.2348 150.19 87.4021 150.235 87.56C150.508 88.1641 150.941 88.682 151.486 89.0578C152.931 90.0942 154.505 90.9372 156.168 91.5653L155.733 93.3433C153.687 93.0735 151.709 92.4281 149.897 91.4397C148.782 90.8441 147.874 89.9243 147.293 88.8017C146.959 88.0843 146.843 87.2846 146.959 86.502C146.97 86.4061 146.986 86.311 147.008 86.2169L147.056 86.014L147.138 85.6468C147.196 85.4004 147.254 85.1637 147.317 84.9221C147.8 82.9895 148.418 81.1536 149.071 79.3321C149.723 77.5107 150.404 75.7134 151.172 73.9209L154.588 75.3703Z" fill="#E4897B"/>
<path d="M151.656 70.4809C151.656 70.4809 150.022 71.3071 156.207 91.9228L170.788 90.0192C169.764 84.1152 169.281 80.4578 170.522 67.9058C168.431 67.756 166.332 67.756 164.241 67.9058C162.015 68.0352 159.802 68.3259 157.618 68.7754C154.82 69.3987 151.656 70.4809 151.656 70.4809Z" fill="#197BEB"/>
<path opacity="0.1" d="M151.656 70.4809C151.656 70.4809 150.022 71.3071 156.207 91.9228L170.788 90.0192C169.764 84.1152 169.281 80.4578 170.522 67.9058C168.431 67.756 166.332 67.756 164.241 67.9058C162.015 68.0352 159.802 68.3259 157.618 68.7754C154.82 69.3987 151.656 70.4809 151.656 70.4809Z" fill="black"/>
<path d="M170.894 89.1352L171.73 90.3479C171.793 90.4445 171.687 90.5605 171.522 90.5847L156.231 92.5849C156.1 92.5849 155.98 92.5511 155.96 92.4689L155.661 91.1789C155.637 91.092 155.743 91.0002 155.888 90.9808L170.653 89.0483C170.697 89.0412 170.742 89.0454 170.785 89.0606C170.827 89.0758 170.865 89.1015 170.894 89.1352Z" fill="#197BEB"/>
<path opacity="0.2" d="M170.894 89.1352L171.73 90.3479C171.793 90.4445 171.687 90.5605 171.522 90.5847L156.231 92.5849C156.1 92.5849 155.98 92.5511 155.96 92.4689L155.661 91.1789C155.637 91.092 155.743 91.0002 155.888 90.9808L170.653 89.0483C170.697 89.0412 170.742 89.0454 170.785 89.0606C170.827 89.0758 170.865 89.1015 170.894 89.1352Z" fill="black"/>
<path d="M169.126 91.0435L169.522 90.9904C169.599 90.9904 169.653 90.9324 169.643 90.8841L169.237 89.2124C169.222 89.1839 169.197 89.1616 169.167 89.1492C169.137 89.1369 169.104 89.1353 169.073 89.1448L168.677 89.1931C168.594 89.1931 168.541 89.2511 168.556 89.3042L168.962 90.971C168.971 91.0242 169.049 91.0532 169.126 91.0435Z" fill="#263238"/>
<path d="M159.54 92.2805L159.937 92.2273C160.014 92.2273 160.072 92.1694 160.057 92.121L159.651 90.4494C159.636 90.4212 159.611 90.3989 159.581 90.3858C159.552 90.3727 159.519 90.3696 159.487 90.3769L159.091 90.43C159.014 90.43 158.956 90.488 158.97 90.5363L159.376 92.208C159.386 92.2805 159.463 92.3095 159.54 92.2805Z" fill="#263238"/>
<path d="M152.337 77.4771C152.738 79.342 153.303 81.7046 154.129 84.6953L154.308 77.1147L152.337 77.4771Z" fill="#197BEB"/>
<path opacity="0.3" d="M152.337 77.4771C152.738 79.342 153.303 81.7046 154.129 84.6953L154.308 77.1147L152.337 77.4771Z" fill="black"/>
<path d="M151.656 70.481C149.844 71.2106 148.274 77.4093 148.274 77.4093L154.506 80.4435C154.506 80.4435 157.516 72.8629 156.168 71.3845C154.82 69.9061 153.743 69.6452 151.656 70.481Z" fill="#197BEB"/>
<path opacity="0.1" d="M151.656 70.481C149.844 71.2106 148.274 77.4093 148.274 77.4093L154.506 80.4435C154.506 80.4435 157.516 72.8629 156.168 71.3845C154.82 69.9061 153.743 69.6452 151.656 70.481Z" fill="black"/>
<path d="M162.56 167.254H155.994L155.482 165.051L162.792 165.1L162.56 167.254Z" fill="#197BEB"/>
<path opacity="0.2" d="M162.56 167.254H155.994L155.482 165.051L162.792 165.1L162.56 167.254Z" fill="black"/>
<path d="M156.269 90.9662L155.743 90.7488C155.613 90.6962 155.472 90.6787 155.334 90.6982C155.195 90.7177 155.065 90.7734 154.955 90.8597C154.845 90.9461 154.76 91.06 154.708 91.1898C154.656 91.3197 154.64 91.4609 154.661 91.5991L155.042 94.1163C155.061 94.2423 155.107 94.3626 155.177 94.4687C155.248 94.5747 155.341 94.6637 155.45 94.7293C155.559 94.795 155.681 94.8356 155.808 94.8482C155.935 94.8608 156.063 94.8452 156.183 94.8024C156.374 94.7328 156.553 94.6333 156.714 94.5077C156.889 94.3627 157.027 94.1788 157.118 93.9707C157.208 93.7626 157.249 93.5361 157.236 93.3095L157.183 92.2659C157.173 91.9839 157.082 91.7107 156.92 91.4798C156.758 91.249 156.532 91.0705 156.269 90.9662Z" fill="#E4897B"/>
</svg>
