<svg width="20" height="50" viewBox="0 0 20 50" fill="none" xmlns="http://www.w3.org/2000/svg">
<path d="M9.69142 49.9999C12.5961 49.9999 14.9508 48.6399 14.9508 46.9623C14.9508 45.2848 12.5961 43.9248 9.69142 43.9248C6.78673 43.9248 4.43201 45.2848 4.43201 46.9623C4.43201 48.6399 6.78673 49.9999 9.69142 49.9999Z" fill="#E0E0E0"/>
<path d="M13.1977 29.8088C12.7524 29.5541 10.8774 28.4697 10.2399 28.1009C10.1133 28.0291 10.0337 27.9822 10.0274 27.9775C9.71043 27.8008 9.34006 27.7453 8.98521 27.8213C8.68061 27.8831 8.38888 27.9967 8.1227 28.1572C8.07895 28.1822 8.0352 28.2119 7.99302 28.24C7.2727 28.6947 6.65394 29.4103 6.13831 30.3947C5.61327 31.3536 5.3316 32.4266 5.31799 33.5197C5.31799 34.5552 5.59404 35.2817 6.14613 35.6994C6.20202 35.7411 6.26047 35.7792 6.32113 35.8135C6.83832 36.1073 9.43209 37.6104 9.4899 37.6432H9.50396C9.44015 37.6082 9.37904 37.5685 9.32115 37.5245C8.76802 37.1078 8.49198 36.3817 8.49302 35.3463C8.50662 34.2532 8.7883 33.1801 9.31334 32.2213C9.85813 31.1796 10.5191 30.4333 11.2962 29.9822C12.0358 29.5551 12.6743 29.4994 13.2118 29.815L13.1977 29.8088Z" fill="#197BEB"/>
<path opacity="0.4" d="M13.2118 29.8185C12.6743 29.506 12.0357 29.5612 11.2961 29.9841C10.5743 30.4008 9.95185 31.0779 9.42893 32.0154L6.25391 30.1763C6.74454 29.2997 7.32423 28.6544 7.99142 28.2341C8.03361 28.2075 8.07736 28.1763 8.12111 28.1513C8.38701 27.9906 8.67888 27.8774 8.98362 27.8169C9.33844 27.7401 9.70912 27.7956 10.0258 27.9732L10.2383 28.0966C10.8758 28.4638 12.7508 29.5482 13.1961 29.8029L13.2118 29.8185Z" fill="black"/>
<path opacity="0.3" d="M9.50396 37.6387H9.4899C9.43209 37.6059 6.83363 36.1028 6.32113 35.809C6.26047 35.7747 6.20202 35.7366 6.14613 35.695C5.59404 35.2783 5.31799 34.5523 5.31799 33.5168C5.33121 32.4237 5.61292 31.3505 6.13831 30.3918C6.17581 30.3184 6.21488 30.2465 6.2555 30.1777L9.42896 32.0106C9.3899 32.0793 9.35084 32.1512 9.31334 32.2231C8.7883 33.1819 8.50662 34.255 8.49302 35.3481C8.49302 36.3835 8.76906 37.1096 9.32115 37.5262C9.37924 37.5682 9.44034 37.6058 9.50396 37.6387V37.6387Z" fill="black"/>
<path d="M11.8135 2.99683C13.3542 2.1062 14.6656 1.72755 15.7479 1.86089C16.1884 1.91351 16.6136 2.0549 16.9979 2.27651C16.9872 2.27084 16.9767 2.26458 16.9667 2.25776C16.5948 2.04839 14.3542 0.756191 13.8417 0.454626C13.4507 0.226131 13.0165 0.0814015 12.5666 0.0296223C11.4833 -0.10267 10.1713 0.275458 8.63068 1.16401C6.23483 2.54631 4.30773 4.57758 2.84939 7.2578C1.39104 9.93803 0.669682 12.674 0.685307 15.4657L3.85877 17.2985C3.83689 14.5047 4.55825 11.7683 6.02285 9.08907C7.48744 6.40988 9.41766 4.37914 11.8135 2.99683Z" fill="#197BEB"/>
<path opacity="0.2" d="M16.9728 2.2589C16.5942 2.04798 16.1781 1.91266 15.7478 1.86046C14.6666 1.72712 13.3551 2.10577 11.8134 2.99641C9.41757 4.37767 7.49048 6.40893 6.03213 9.0902C5.97119 9.20114 5.91182 9.31364 5.85401 9.42458L2.67273 7.58863C2.73054 7.47769 2.78992 7.36519 2.85086 7.25425C4.31545 4.57611 6.24255 2.54484 8.63215 1.16045C10.1749 0.270863 11.4869 -0.107265 12.5681 0.0260695C13.0181 0.0783742 13.4523 0.223635 13.8431 0.452635C14.3603 0.757325 16.601 2.05109 16.9728 2.2589Z" fill="black"/>
<path opacity="0.3" d="M5.84613 9.42169C4.50132 11.9936 3.83934 14.6181 3.86017 17.2952L0.68671 15.4624C0.666918 12.7842 1.3289 10.1597 2.67266 7.58887L5.84613 9.42169Z" fill="black"/>
<path d="M13.9697 8.1905C13.3937 7.88425 12.6244 8.00404 11.6619 8.54987C11.6294 9.12254 11.5114 9.68712 11.3119 10.2249C11.0713 10.8728 10.3713 12.2093 9.21189 14.2343C8.01084 16.3281 7.14208 18.3276 6.60562 20.2328C6.07354 22.1138 5.80329 24.0592 5.80249 26.0141L5.81812 26.9875L7.98376 28.2375L8.99314 28.8203L8.97595 27.8453V27.8328C8.97939 25.8843 9.24961 23.9455 9.77908 22.0703C10.3155 20.1651 11.1848 18.1661 12.3869 16.0734C13.5453 14.0484 14.2447 12.7114 14.4854 12.0624C14.7257 11.4208 14.8485 10.7412 14.8479 10.0561C14.8479 9.12384 14.5552 8.50196 13.9697 8.1905Z" fill="#197BEB"/>
<path opacity="0.3" d="M14.1743 12.7631C13.816 13.5089 13.2201 14.61 12.3868 16.0663C11.1837 18.16 10.3144 20.1595 9.77896 22.0647C9.24893 23.9414 8.97871 25.8819 8.97583 27.832V27.857L8.99302 28.832L7.98364 28.2507L5.81799 27.0007L5.80237 26.0257C5.80328 24.0709 6.07353 22.1255 6.6055 20.2444C7.14196 18.3392 8.01072 16.3397 9.21177 14.2459C10.0451 12.7876 10.642 11.6871 11.0024 10.9443L14.1743 12.7631Z" fill="black"/>
<path opacity="0.4" d="M14.8478 10.0561C14.8481 10.739 14.7259 11.4164 14.4868 12.0562C14.4197 12.239 14.315 12.4749 14.1743 12.764L11.0024 10.9327C11.141 10.6431 11.2452 10.4072 11.3149 10.2249C11.5145 9.68712 11.6324 9.12254 11.6649 8.54987C12.6275 8.00404 13.3967 7.88425 13.9728 8.1905C14.5488 8.49675 14.8405 9.11863 14.8478 10.0561Z" fill="black"/>
<path d="M8.15545 14.814L3.8601 17.2953C3.83823 14.5015 4.55959 11.7651 6.02418 9.08587C7.48878 6.40668 9.41588 4.37541 11.8055 2.99207C13.3461 2.10144 14.6576 1.72279 15.7399 1.85612C16.8222 1.98946 17.6883 2.58269 18.3383 3.63582C18.9894 4.68896 19.3149 6.00251 19.3149 7.57648C19.3085 8.49028 19.2037 9.40074 19.0024 10.2921C18.7589 11.3584 18.4303 12.4034 18.0196 13.4172C17.7571 14.0797 17.1284 15.3026 16.1336 17.0859C15.1826 18.7859 14.5868 19.9427 14.3461 20.5563C14.079 21.2846 13.8808 22.0363 13.7539 22.8016C13.5648 23.9455 13.4603 25.1017 13.4414 26.261L8.99921 28.8266L8.98202 27.8516C8.98293 25.8968 9.25319 23.9514 9.78515 22.0703C10.3216 20.1651 11.1909 18.1661 12.393 16.0734C13.5513 14.0484 14.2508 12.7114 14.4914 12.0625C14.7296 11.4205 14.8503 10.7409 14.8477 10.0562C14.8477 9.11868 14.5555 8.4968 13.9711 8.19055C13.3867 7.88429 12.6024 8.01242 11.618 8.57492C10.6117 9.15618 9.78619 10.0281 9.14139 11.1906C8.5108 12.2952 8.17152 13.5421 8.15545 14.814V14.814Z" fill="#197BEB"/>
<path d="M11.2884 29.993C12.0852 29.5316 12.7654 29.5029 13.329 29.9071C13.8925 30.3113 14.1743 31.0305 14.1743 32.0649C14.1573 33.164 13.8702 34.242 13.3384 35.204C12.7821 36.2613 12.1097 37.0176 11.3212 37.4728C10.5326 37.928 9.86282 37.9467 9.31177 37.529C8.75969 37.1124 8.48364 36.3858 8.48364 35.3493C8.49725 34.2562 8.77892 33.1831 9.30396 32.2243C9.85084 31.1847 10.5123 30.4409 11.2884 29.993Z" fill="#197BEB"/>
</svg>
