<svg width="18" height="18" viewBox="0 0 18 18" fill="none" xmlns="http://www.w3.org/2000/svg">
<path d="M3.08299 4.29336L7.16959 2.06189C8.37945 1.40126 9.84421 1.41013 11.046 2.08537L14.9594 4.2842C16.2198 4.99241 17 6.32566 17 7.77144V12.9385L10.92 16.07C9.78514 16.6545 8.4395 16.6622 7.29801 16.0909L1 12.9385V7.80407C1 6.34095 1.79884 4.99457 3.08299 4.29336Z" fill="white"/>
<path d="M17 12.9385V7.77144C17 6.32566 16.2198 4.99241 14.9594 4.2842L11.046 2.08537C9.84421 1.41013 8.37945 1.40126 7.16959 2.06189L3.08299 4.29336C1.79884 4.99457 1 6.34095 1 7.80407V12.9385M17 12.9385L10.92 16.07C9.78513 16.6545 8.4395 16.6622 7.29801 16.0909L1 12.9385M17 12.9385L11.0864 9.52344C9.86377 8.81743 8.35954 8.80819 7.12838 9.49913L1 12.9385" stroke="#D9D9D9" stroke-width="2"/>
<path d="M9.11432 1V8.38461" stroke="#D9D9D9" stroke-width="2"/>
<path d="M13.4132 6.27866L13.0798 6.08977C12.7465 5.90089 12.3333 6.14167 12.3333 6.52478V6.58365C12.3333 6.75928 12.4255 6.92204 12.5761 7.0124L12.9094 7.2124C13.2427 7.41236 13.6666 7.1723 13.6666 6.78365V6.71367C13.6666 6.5336 13.5698 6.36743 13.4132 6.27866Z" fill="#D9D9D9" stroke="#D9D9D9" stroke-width="2"/>
<path d="M4.33331 7.66332V10.9999L6.33331 9.86171V7.15112C6.33331 6.7773 5.93809 6.53568 5.60538 6.7061L4.60538 7.21829C4.43837 7.30383 4.33331 7.47568 4.33331 7.66332Z" fill="#D9D9D9" stroke="#D9D9D9" stroke-width="2"/>
</svg>
