<svg width="40" height="40" viewBox="0 0 40 40" fill="none" xmlns="http://www.w3.org/2000/svg">
<rect width="40" height="40" rx="4" fill="#197BEB"/>
<path d="M31.7229 8.29122C31.5878 8.1569 31.4171 8.0639 31.2308 8.02316C31.0446 7.98242 30.8506 7.99563 30.6717 8.06123L8.6461 16.0608C8.45615 16.1328 8.29261 16.2608 8.17721 16.4278C8.06181 16.5948 8 16.7929 8 16.9958C8 17.1987 8.06181 17.3968 8.17721 17.5638C8.29261 17.7308 8.45615 17.8588 8.6461 17.9307L18.2573 21.7705L22.1017 31.37C22.1739 31.5514 22.2978 31.7077 22.4579 31.8197C22.618 31.9316 22.8074 31.9943 23.0028 32C23.2051 31.9959 23.4014 31.9306 23.5658 31.8128C23.7302 31.6949 23.8551 31.5301 23.9238 31.34L31.9331 9.34117C32.0013 9.16425 32.0178 8.97161 31.9806 8.78572C31.9433 8.59982 31.854 8.42832 31.7229 8.29122ZM23.0028 28.2002L20.2095 21.2006L25.0051 16.4108L23.5934 15.0009L18.7578 19.8306L11.7897 17.0008L29.3401 10.6711L23.0028 28.2002Z" fill="white"/>
</svg>
