<svg width="13" height="16" viewBox="0 0 13 16" fill="none" xmlns="http://www.w3.org/2000/svg">
<path d="M11.1795 6.28688C11.1795 9.23701 8.87094 11.5738 6.08974 11.5738C3.30855 11.5738 1 9.23701 1 6.28688C1 3.33675 3.30855 1 6.08974 1C8.87094 1 11.1795 3.33675 11.1795 6.28688Z" stroke="#D9D9D9" stroke-width="2"/>
<path d="M1.28204 14.2937C1.28204 13.8018 1.7389 13.4373 2.21854 13.5465L5.35055 14.2597C5.83711 14.3705 6.34236 14.3705 6.82892 14.2597L9.96093 13.5465C10.4406 13.4373 10.8974 13.8018 10.8974 14.2937V14.2937C10.8974 14.6514 10.65 14.9615 10.3012 15.0409L7.15715 15.7569C6.45453 15.9169 5.72494 15.9169 5.02232 15.7569L1.87825 15.0409C1.52948 14.9615 1.28204 14.6514 1.28204 14.2937V14.2937Z" fill="#D9D9D9"/>
</svg>
