<svg width="32" height="32" viewBox="0 0 32 32" fill="none" xmlns="http://www.w3.org/2000/svg">
<path d="M0 16C0 7.16344 7.16344 0 16 0C24.8366 0 32 7.16344 32 16C32 24.8366 24.8366 32 16 32C7.16344 32 0 24.8366 0 16Z" fill="#F1F1F1"/>
<path d="M20.5 22.0001C21.432 22.0001 22.1875 21.1955 22.1875 20.203C22.1875 19.2104 21.432 18.4058 20.5 18.4058C19.568 18.4058 18.8125 19.2104 18.8125 20.203C18.8125 21.1955 19.568 22.0001 20.5 22.0001Z" fill="#070723" fill-opacity="0.5"/>
<path d="M22.8625 14.8112H21.0625C20.3875 11.5763 17.4625 9.41965 14.425 10.1385C12.175 10.6178 10.375 12.415 9.925 14.8112H9.1375C8.0125 14.8112 7 15.8895 7 17.0877V18.6452C7 19.4839 7.675 20.2028 8.4625 20.2028H8.8C8.8 18.6452 10.0375 17.3273 11.5 17.3273C12.9625 17.3273 14.2 18.6452 14.2 20.2028H17.8C17.8 18.6452 19.0375 17.3273 20.5 17.3273C21.9625 17.3273 23.2 18.6452 23.2 20.2028H23.5375C24.325 20.2028 25 19.4839 25 18.6452V17.2075C25 15.8895 23.9875 14.8112 22.8625 14.8112ZM11.725 14.8112C12.2875 12.5348 14.5375 11.3366 16.5625 11.9357C17.8 12.2951 18.8125 13.3735 19.2625 14.8112H11.725ZM11.5 18.4056C10.6 18.4056 9.8125 19.2443 9.8125 20.2028C9.8125 21.1613 10.6 22 11.5 22C12.4 22 13.1875 21.1613 13.1875 20.2028C13.1875 19.2443 12.4 18.4056 11.5 18.4056Z" fill="#070723" fill-opacity="0.5"/>
</svg>
